<svg xmlns="http://www.w3.org/2000/svg" xmlns:xlink="http://www.w3.org/1999/xlink" width="794" height="795" viewBox="0 0 794 795">
  <defs>
    <clipPath id="clip-Plan_de_travail_1">
      <rect width="794" height="795"/>
    </clipPath>
  </defs>
  <g id="Plan_de_travail_1" data-name="Plan de travail – 1" clip-path="url(#clip-Plan_de_travail_1)">
    <rect width="794" height="795" fill="rgba(139,139,139,0)"/>
    <g id="Ellipse_1" data-name="Ellipse 1" transform="translate(81 81)" fill="#212121" stroke="#707070" stroke-width="1">
      <circle cx="318" cy="318" r="318" stroke="none"/>
      <circle cx="318" cy="318" r="317.5" fill="none"/>
    </g>
    <g id="food" transform="translate(252.723 311.901)">
      <g id="layer101" transform="translate(0 0)">
        <path id="Tracé_9" data-name="Tracé 9" d="M3000.588,4266.2c-.336-.252-.588-4.029-.588-8.395,0-6.383.252-7.809,1.26-7.809s1.259,1.51,1.259,8.4C3002.519,4266.12,3002.1,4267.8,3000.588,4266.2Z" transform="translate(-2853.915 -4093.839)" fill="#fff"/>
        <path id="Tracé_13" data-name="Tracé 13" d="M3670.589,4266.2c-.337-.252-.589-4.029-.589-8.395V4250h5.122c3.694,0,5.036.252,4.784,1.09-.25.5-1.93,1.094-3.86,1.262-2.854.25-3.525.584-3.525,1.93s.587,1.594,3.355,1.594c2.6,0,3.192.254,2.854,1.26-.333.758-1.593,1.262-3.355,1.262h-2.854v4.2C3672.521,4266.456,3671.932,4267.632,3670.589,4266.2Z" transform="translate(-3467.662 -4093.839)" fill="#fff"/>
        <path id="Tracé_19" data-name="Tracé 19" d="M1271.922,2518.876c-5.373-1.176-9.655-3.61-11.083-6.3-.5-1.007-.839-23.423-.839-62.043V2390h80.6v2.771c-.084,4.112-2.938,9.57-6.045,11.5-2.6,1.594-4.2,1.678-28.125,1.678h-25.44v35.263h17.463c15.532,0,24.935-.671,30.9-2.184,1.931-.5,2.016-.252,2.016,3.19a14.893,14.893,0,0,1-7.557,13.013c-3.442,1.848-4.365,1.933-23.257,1.933h-19.562v62.967l-1.847-.083A60.739,60.739,0,0,1,1271.922,2518.876Z" transform="translate(-1260 -2390)" fill="#fff"/>
        <path id="Tracé_20" data-name="Tracé 20" d="M3886.829,2527.279c-9.319-2.35-15.868-7.3-19.478-14.608l-2.352-4.786v-23.506c0-22.921.084-23.594,2.017-27.875,2.433-5.457,8.646-11.419,15.027-14.356,4.282-2.017,5.709-2.267,14.441-2.267,10.158,0,16.286,1.342,20.315,4.532l1.933,1.6-.252-23-.253-23.006h2.016c3.694,0,10.746,2.6,13.434,5.038l2.687,2.351.251,60.618c.168,57.763.168,60.617-1.257,60.029-4.619-1.932-9.994-2.352-17.8-1.26C3905.887,2528.288,3891.783,2528.624,3886.829,2527.279Zm28.8-14.775,2.772-1.008-.251-23.675c-.254-27.288-.254-27.036-8.816-31.234-9.906-4.869-19.646-3.189-23.845,4.115-2.014,3.442-2.014,3.862-2.014,23.677,0,24.683.5,26.11,9.487,28.713C3897.575,2514.351,3911.344,2514.015,3915.625,2512.5Z" transform="translate(-3646.29 -2399.161)" fill="#fff"/>
        <path id="Tracé_21" data-name="Tracé 21" d="M2163.837,3312.977a37.789,37.789,0,0,1-14.525-9.822c-3.022-3.525-7.137-11.754-7.892-16.036l-.421-2.771h25.1l-.5-2.268c-.588-3.524,2.1-7.136,7.557-9.906,5.121-2.6,6.213-4.45,4.785-8.312-1.092-2.771-1.175-3.862-.252-3.862,1.176,0,3.526,4.786,3.526,7.136,0,3.527-1.344,5.206-6.718,8.061-5.036,2.687-6.716,5.038-5.54,7.893.67,1.846,9.319,1.68,13.1-.252,2.687-1.344,2.938-1.679,2.77-5.038-.168-3.946.673-4.533,2.1-1.427,1.344,2.938,1.261,5.121-.335,6.634-1.176,1.259-.336,1.342,9.57,1.342h10.914l-.754,3.19C2201.954,3307.185,2181.636,3319.358,2163.837,3312.977Z" transform="translate(-2067.033 -3186.957)" fill="#fff"/>
        <path id="Tracé_22" data-name="Tracé 22" d="M3049.912,3578.3a32.42,32.42,0,0,1-13.264-9.405,35.164,35.164,0,0,1-8.061-15.7L3028,3550h65.907l-.5,2.939c-1.51,9.152-9.655,19.562-18.976,24.18-4.7,2.266-6.548,2.685-12.677,2.938C3055.79,3580.227,3053.859,3579.975,3049.912,3578.3Z" transform="translate(-2879.562 -3452.609)" fill="#fff"/>
        <path id="Tracé_23" data-name="Tracé 23" d="M3028.588,3202.118c1.092-5.791,6.213-14.692,10.746-18.806,7.053-6.381,12-8.312,21.578-8.312,6.129,0,8.9.421,11.755,1.6,10.746,4.7,18.386,13.938,21.324,25.943l.5,2.267H3028Z" transform="translate(-2879.562 -3116.897)" fill="#fff"/>
        <path id="Tracé_24" data-name="Tracé 24" d="M2120.239,2926.392c-1.007-3.946-.5-15.531.924-19.647a33.247,33.247,0,0,1,16.875-19.393c4.366-2.1,5.625-2.352,14.022-2.352s9.654.253,13.433,2.268a49.918,49.918,0,0,1,7.136,4.449c3.694,2.772,8.648,8.9,7.809,9.738-.419.253-7.053,3.443-14.944,6.884-7.808,3.529-21.073,9.405-29.3,13.1-8.312,3.778-15.2,6.8-15.28,6.8A10.1,10.1,0,0,1,2120.239,2926.392Z" transform="translate(-2047.533 -2843.44)" fill="#fff"/>
        <path id="Tracé_25" data-name="Tracé 25" d="M3372.125,3054.2c-1.763-1.764-2.015-3.106-1.176-5.373,1.68-4.366,8.648-2.6,8.732,2.267,0,1.764-2.854,4.786-4.616,4.786A5.647,5.647,0,0,1,3372.125,3054.2Z" transform="translate(-3193.295 -3002.934)" fill="#fff"/>
        <path id="Tracé_26" data-name="Tracé 26" d="M2262.458,2787.892c-2.771-2.771-.588-7.892,3.442-7.892,2.1,0,4.45,2.517,4.45,4.784C2270.351,2788.48,2265.062,2790.579,2262.458,2787.892Z" transform="translate(-2177.157 -2747.258)" fill="#fff"/>
      </g>
      <g id="layer103" transform="translate(76.192 49.053)">
        <path id="Tracé_30" data-name="Tracé 30" d="M2160.974,3001.325c-.084-6.633,2.1-11.838,7.137-16.876,2.435-2.434,4.868-4.449,5.456-4.449.5,0-.923,1.847-3.274,4.2-4.281,4.2-7.639,11-7.808,15.783a11.37,11.37,0,0,1-.755,3.945C2161.227,3005.188,2160.974,3004.516,2160.974,3001.325Z" transform="translate(-2160.972 -2980)" fill="#fff"/>
      </g>
      <g id="layer106" transform="translate(76.185 51.21)">
        <path id="Tracé_35" data-name="Tracé 35" d="M3120,3277.5c0-1.427,3.107-7.809,4.869-9.824,2.016-2.434,7.726-6.632,8.229-6.128.252.251-.839,1.26-2.434,2.267-3.442,2.1-6.718,6.214-8.985,11.167C3120.757,3277,3120,3278.087,3120,3277.5Z" transform="translate(-3043.377 -3247.834)" fill="#373737"/>
        <path id="Tracé_36" data-name="Tracé 36" d="M2160.9,3024.952c-.253-5.877,4.449-15.617,9.065-18.556,1.848-1.259,1.679-.925-.923,1.932-4.03,4.533-4.953,6.3-6.632,12.845C2161.565,3024.2,2160.9,3025.875,2160.9,3024.952Z" transform="translate(-2160.885 -3005.7)" fill="#373737"/>
      </g>
    </g>
    <g id="Groupe_79" data-name="Groupe 79" transform="translate(12.485 56.96)">
      <text id="STORE" transform="translate(383.577 529.176) rotate(-0.748)" fill="#fff" font-size="37" font-family="ShadowBrush, Shadow Brush" letter-spacing="0.44em"><tspan x="-79.334" y="0">STORE</tspan></text>
      <g id="Groupe_78" data-name="Groupe 78" transform="translate(42.982 0)">
        <g id="Groupe_76" data-name="Groupe 76" transform="translate(0 0)">
          <g id="Groupe_448" data-name="Groupe 448">
            <g id="Groupe_165" data-name="Groupe 165" transform="translate(376.418 336.551)">
              <g id="Groupe_84" data-name="Groupe 84" transform="translate(253.244)">
                <g id="Groupe_81" data-name="Groupe 81" transform="translate(27.13)">
                  <g id="Groupe_80" data-name="Groupe 80">
                    <path id="Tracé_131" data-name="Tracé 131" d="M152.448,262.842c-.169-2.2,1.429-4.148,3.4-4.057,6.873.289,21.439,2.653,21.247,17.147-.543,8.977-6.409,12.016-12.185,9.538C159.11,282.979,153.582,275.383,152.448,262.842Z" transform="translate(-152.436 -258.781)" fill="#fff"/>
                  </g>
                </g>
                <g id="Groupe_83" data-name="Groupe 83" transform="translate(0 0.11)">
                  <g id="Groupe_82" data-name="Groupe 82">
                    <path id="Tracé_132" data-name="Tracé 132" d="M172.908,262.757a3.364,3.364,0,0,0-3.3-3.949c-6.885.524-21.512,3.027-21.638,15.1-.482,7.53,4.962,10.973,10.991,9.538C164.968,282.02,171.817,275.327,172.908,262.757Z" transform="translate(-147.936 -258.8)" fill="#fff"/>
                  </g>
                </g>
              </g>
              <g id="Groupe_89" data-name="Groupe 89" transform="translate(251.116 26.89)">
                <g id="Groupe_86" data-name="Groupe 86" transform="translate(28.17 0.618)">
                  <g id="Groupe_85" data-name="Groupe 85">
                    <path id="Tracé_133" data-name="Tracé 133" d="M152.259,267.136c-.054-2.213,1.64-4.021,3.6-3.768,6.795.874,21.458,4.5,19.709,18.907-.452,4.455-2.357,7.337-4.787,8.7a8.234,8.234,0,0,1-8.079-.229C157.287,287.786,152.108,279.7,152.259,267.136Z" transform="translate(-152.255 -263.344)" fill="#fff"/>
                  </g>
                </g>
                <g id="Groupe_88" data-name="Groupe 88">
                  <g id="Groupe_87" data-name="Groupe 87">
                    <path id="Tracé_134" data-name="Tracé 134" d="M173.6,267.47c.332-2.177-1.121-4.208-3.093-4.226-6.94-.066-21.373,1.218-22.844,13.18-.368,3.774.6,6.578,2.46,8.368a9.117,9.117,0,0,0,7.771,2.086C164.144,286,171.222,279.878,173.6,267.47Z" transform="translate(-147.583 -263.242)" fill="#fff"/>
                  </g>
                </g>
              </g>
              <g id="Groupe_94" data-name="Groupe 94" transform="translate(246.756 53.257)">
                <g id="Groupe_91" data-name="Groupe 91" transform="translate(28.887 1.569)">
                  <g id="Groupe_90" data-name="Groupe 90">
                    <path id="Tracé_135" data-name="Tracé 135" d="M151.758,271.378c.169-2.207,2.038-3.858,3.967-3.437,3.364.754,8.549,2.3,12.589,5.474,4.034,3.159,7.03,8.037,5.408,15.067-1.857,8.814-8.224,10.786-13.469,7.349a18.266,18.266,0,0,1-6.674-8.838C151.939,282.864,151.4,277.7,151.758,271.378Z" transform="translate(-151.651 -267.875)" fill="#fff"/>
                  </g>
                </g>
                <g id="Groupe_93" data-name="Groupe 93">
                  <g id="Groupe_92" data-name="Groupe 92">
                    <path id="Tracé_136" data-name="Tracé 136" d="M173.719,272.319c.549-2.135-.7-4.275-2.659-4.468a37.653,37.653,0,0,0-13.65.911c-4.8,1.417-8.869,4.329-10.256,10.244-1.543,7.374,3.171,11.684,9.369,11.317a15.753,15.753,0,0,0,9.635-4.57A27.07,27.07,0,0,0,173.719,272.319Z" transform="translate(-146.86 -267.615)" fill="#fff"/>
                  </g>
                </g>
              </g>
              <g id="Groupe_99" data-name="Groupe 99" transform="translate(240.222 78.946)">
                <g id="Groupe_96" data-name="Groupe 96" transform="translate(29.114 2.815)">
                  <g id="Groupe_95" data-name="Groupe 95">
                    <path id="Tracé_137" data-name="Tracé 137" d="M151.219,275.54c.386-2.177,2.418-3.653,4.293-3.069,6.529,2.02,20.2,8.091,16.14,22.03-2.767,8.573-9.182,10.014-14.144,6.126a17.81,17.81,0,0,1-5.824-9.369A37.174,37.174,0,0,1,151.219,275.54Z" transform="translate(-150.605 -272.343)" fill="#fff"/>
                  </g>
                </g>
                <g id="Groupe_98" data-name="Groupe 98">
                  <g id="Groupe_97" data-name="Groupe 97">
                    <path id="Tracé_138" data-name="Tracé 138" d="M173.406,277.334a3.392,3.392,0,0,0-2.213-4.667c-6.843-1.26-21.433-2.526-24.786,9.038-2.327,7.162,2.086,11.9,8.26,12.058a16.071,16.071,0,0,0,10.05-3.7C168.209,287.456,171.272,283.248,173.406,277.334Z" transform="translate(-145.776 -271.876)" fill="#fff"/>
                  </g>
                </g>
              </g>
              <g id="Groupe_104" data-name="Groupe 104" transform="translate(231.568 103.807)">
                <g id="Groupe_101" data-name="Groupe 101" transform="translate(28.907 4.291)">
                  <g id="Groupe_100" data-name="Groupe 100">
                    <path id="Tracé_139" data-name="Tracé 139" d="M150.561,279.612c.633-2.11,2.671-3.443,4.5-2.689,6.439,2.617,19.378,9.785,14.193,23.351-3.491,8.3-10.111,9.134-14.681,4.848a17.513,17.513,0,0,1-4.914-9.8A34.159,34.159,0,0,1,150.561,279.612Z" transform="translate(-149.135 -276.711)" fill="#fff"/>
                  </g>
                </g>
                <g id="Groupe_103" data-name="Groupe 103">
                  <g id="Groupe_102" data-name="Groupe 102">
                    <path id="Tracé_140" data-name="Tracé 140" d="M172.63,282.462a3.387,3.387,0,0,0-1.839-4.854c-6.59-1.809-21.168-4.4-25.455,6.861-2.93,6.933.953,11.992,7.132,12.7a16.4,16.4,0,0,0,10.406-2.779C166.517,292.078,169.857,288.111,172.63,282.462Z" transform="translate(-144.341 -275.999)" fill="#fff"/>
                  </g>
                </g>
              </g>
              <g id="Groupe_109" data-name="Groupe 109" transform="translate(220.868 127.681)">
                <g id="Groupe_106" data-name="Groupe 106" transform="translate(28.279 5.925)">
                  <g id="Groupe_105" data-name="Groupe 105">
                    <path id="Tracé_141" data-name="Tracé 141" d="M149.7,283.573c.705-2.1,2.918-3.22,4.667-2.315,6.089,3.123,18.654,11.528,12.106,24.49-3.979,8.073-10.882,8.206-14.982,3.581S145.318,295.353,149.7,283.573Z" transform="translate(-147.257 -280.942)" fill="#fff"/>
                  </g>
                </g>
                <g id="Groupe_108" data-name="Groupe 108">
                  <g id="Groupe_107" data-name="Groupe 107">
                    <path id="Tracé_142" data-name="Tracé 142" d="M171.318,287.611c1.055-1.935.386-4.329-1.465-5.022-6.511-2.418-20.5-6.12-25.961,4.624-3.3,6.771-.115,12.022,6.059,13.306S164.9,298.493,171.318,287.611Z" transform="translate(-142.566 -279.959)" fill="#fff"/>
                  </g>
                </g>
              </g>
              <g id="Groupe_114" data-name="Groupe 114" transform="translate(208.142 150.461)">
                <g id="Groupe_111" data-name="Groupe 111" transform="translate(27.323 7.673)">
                  <g id="Groupe_110" data-name="Groupe 110">
                    <path id="Tracé_143" data-name="Tracé 143" d="M148.6,287.338c.9-2.02,3.219-2.942,4.89-1.887,2.912,1.851,7.259,5.071,9.984,9.43a14.05,14.05,0,0,1-.042,16.007c-4.691,7.681-11.449,7.3-15.187,2.309A18.488,18.488,0,0,1,145,302.64C144.823,298.172,146.125,293.168,148.6,287.338Z" transform="translate(-144.987 -285.01)" fill="#fff"/>
                  </g>
                </g>
                <g id="Groupe_113" data-name="Groupe 113">
                  <g id="Groupe_112" data-name="Groupe 112">
                    <path id="Tracé_144" data-name="Tracé 144" d="M169.514,292.659a3.452,3.452,0,0,0-.989-5.107,37.6,37.6,0,0,0-13.137-3.78c-4.962-.277-9.852,1.031-13.137,6.144-3.913,6.445-1.049,12.034,4.938,13.813a15.539,15.539,0,0,0,10.647-1.007A27.271,27.271,0,0,0,169.514,292.659Z" transform="translate(-140.455 -283.737)" fill="#fff"/>
                  </g>
                </g>
              </g>
              <g id="Groupe_119" data-name="Groupe 119" transform="translate(193.52 171.997)">
                <g id="Groupe_116" data-name="Groupe 116" transform="translate(26.087 9.51)">
                  <g id="Groupe_115" data-name="Groupe 115">
                    <path id="Tracé_145" data-name="Tracé 145" d="M147.313,290.9c1.091-1.917,3.5-2.623,5.064-1.435,5.42,4.1,16.327,14.524,7.711,26.19-5.468,7.151-11.974,6.343-15.338,1a17.937,17.937,0,0,1-2.339-10.8,27.453,27.453,0,0,1,1.453-7.018A40.4,40.4,0,0,1,147.313,290.9Z" transform="translate(-142.357 -288.887)" fill="#fff"/>
                  </g>
                </g>
                <g id="Groupe_118" data-name="Groupe 118">
                  <g id="Groupe_117" data-name="Groupe 117">
                    <path id="Tracé_146" data-name="Tracé 146" d="M167.288,297.606a3.414,3.414,0,0,0-.513-5.155c-6.035-3.527-19.221-9.6-26.389.1-4.582,5.987-2.02,11.95,3.726,14.18a15.946,15.946,0,0,0,10.677-.1,25.731,25.731,0,0,0,6.331-3.159A33.108,33.108,0,0,0,167.288,297.606Z" transform="translate(-138.03 -287.309)" fill="#fff"/>
                  </g>
                </g>
              </g>
              <g id="Groupe_124" data-name="Groupe 124" transform="translate(177.155 192.168)">
                <g id="Groupe_121" data-name="Groupe 121" transform="translate(24.537 11.387)">
                  <g id="Groupe_120" data-name="Groupe 120">
                    <path id="Tracé_147" data-name="Tracé 147" d="M145.827,294.265c1.272-1.809,3.744-2.291,5.2-.971,5.1,4.588,14.886,15.754,5.426,26.751-6.113,6.6-12.553,5.215-15.428-.392C138.1,314,138.737,304.671,145.827,294.265Z" transform="translate(-139.386 -292.544)" fill="#fff"/>
                  </g>
                </g>
                <g id="Groupe_123" data-name="Groupe 123">
                  <g id="Groupe_122" data-name="Groupe 122">
                    <path id="Tracé_148" data-name="Tracé 148" d="M164.625,302.382a3.369,3.369,0,0,0-.036-5.149c-5.661-4-18.461-11.329-26.311-2.177-5.137,5.517-3.117,11.654,2.424,14.385C146.194,312.131,155.8,311.4,164.625,302.382Z" transform="translate(-135.316 -290.655)" fill="#fff"/>
                  </g>
                </g>
              </g>
              <g id="Groupe_129" data-name="Groupe 129" transform="translate(159.179 210.848)">
                <g id="Groupe_126" data-name="Groupe 126" transform="translate(22.682 13.217)">
                  <g id="Groupe_125" data-name="Groupe 125">
                    <path id="Tracé_149" data-name="Tracé 149" d="M144.161,297.444c1.441-1.676,3.835-2.05,5.2-.591,2.339,2.532,5.752,6.783,7.277,11.7,1.483,4.853,1.019,10.412-4.136,15.447-6.59,6.114-12.993,4.07-15.344-1.712a17.459,17.459,0,0,1-.368-10.949A33.256,33.256,0,0,1,144.161,297.444Z" transform="translate(-136.096 -295.945)" fill="#fff"/>
                  </g>
                </g>
                <g id="Groupe_128" data-name="Groupe 128">
                  <g id="Groupe_127" data-name="Groupe 127">
                    <path id="Tracé_150" data-name="Tracé 150" d="M161.537,306.95a3.437,3.437,0,0,0,.332-5.2,37.293,37.293,0,0,0-11.708-6.982c-4.8-1.6-9.948-1.676-14.289,2.586-5.529,5.125-4.148,11.3,1.182,14.536a16.427,16.427,0,0,0,10.629,1.827C151.921,313.081,156.654,310.923,161.537,306.95Z" transform="translate(-132.334 -293.753)" fill="#fff"/>
                  </g>
                </g>
              </g>
              <g id="Groupe_134" data-name="Groupe 134" transform="translate(139.721 227.906)">
                <g id="Groupe_131" data-name="Groupe 131" transform="translate(20.586 15)">
                  <g id="Groupe_130" data-name="Groupe 130">
                    <path id="Tracé_151" data-name="Tracé 151" d="M142.22,300.334c1.519-1.61,4-1.706,5.215-.151,4.214,5.36,12.161,18.268.8,27.3-6.97,5.7-13.318,2.918-15.109-2.979C131.319,318.578,133.333,309.221,142.22,300.334Z" transform="translate(-132.521 -299.07)" fill="#fff"/>
                  </g>
                </g>
                <g id="Groupe_133" data-name="Groupe 133">
                  <g id="Groupe_132" data-name="Groupe 132">
                    <path id="Tracé_152" data-name="Tracé 152" d="M157.98,311.2c1.766-1.314,2.158-3.768.766-5.167-4.92-4.938-16.074-14.1-25.527-6.62-5.818,4.8-5.125,10.876-.036,14.627C138.241,317.778,147.616,318.423,157.98,311.2Z" transform="translate(-129.107 -296.582)" fill="#fff"/>
                  </g>
                </g>
              </g>
              <g id="Groupe_139" data-name="Groupe 139" transform="translate(118.9 243.199)">
                <g id="Groupe_136" data-name="Groupe 136" transform="translate(18.25 16.77)">
                  <g id="Groupe_135" data-name="Groupe 135">
                    <path id="Tracé_153" data-name="Tracé 153" d="M140.078,302.911c1.664-1.459,4.154-1.327,5.233.326,1.875,2.894,4.486,7.633,5.143,12.727a14.059,14.059,0,0,1-6.7,14.536c-7.476,5.016-13.439,1.887-14.771-4.22a18.484,18.484,0,0,1,1.447-10.955C132.132,311.207,135.388,307.173,140.078,302.911Z" transform="translate(-128.681 -301.9)" fill="#fff"/>
                  </g>
                </g>
                <g id="Groupe_138" data-name="Groupe 138">
                  <g id="Groupe_137" data-name="Groupe 137">
                    <path id="Tracé_154" data-name="Tracé 154" d="M154.035,315.138a3.445,3.445,0,0,0,1.23-5.053,37.556,37.556,0,0,0-10.37-8.911c-4.4-2.339-9.381-3.159-14.5.115-6.246,4.22-5.957,10.521-1.26,14.62a15.6,15.6,0,0,0,10.093,3.515A27.282,27.282,0,0,0,154.035,315.138Z" transform="translate(-125.654 -299.119)" fill="#fff"/>
                  </g>
                </g>
              </g>
              <g id="Groupe_144" data-name="Groupe 144" transform="translate(96.853 256.578)">
                <g id="Groupe_141" data-name="Groupe 141" transform="translate(15.702 18.552)">
                  <g id="Groupe_140" data-name="Groupe 140">
                    <path id="Tracé_155" data-name="Tracé 155" d="M137.785,305.186c1.8-1.29,4.275-.922,5.209.814,3.225,5.987,8.778,19.98-3.907,27.016-7.958,4.214-13.541.766-14.367-5.5a17.9,17.9,0,0,1,2.388-10.786,27.54,27.54,0,0,1,4.245-5.77A38.583,38.583,0,0,1,137.785,305.186Z" transform="translate(-124.601 -304.415)" fill="#fff"/>
                  </g>
                </g>
                <g id="Groupe_143" data-name="Groupe 143">
                  <g id="Groupe_142" data-name="Groupe 142">
                    <path id="Tracé_156" data-name="Tracé 156" d="M149.774,318.8c1.99-.953,2.816-3.274,1.682-4.89-4.009-5.721-13.487-16.755-24.026-10.913-6.662,3.515-6.819,10-2.526,14.428a16,16,0,0,0,9.755,4.371,25.531,25.531,0,0,0,7.072-.223A34.436,34.436,0,0,0,149.774,318.8Z" transform="translate(-121.997 -301.338)" fill="#fff"/>
                  </g>
                </g>
              </g>
              <g id="Groupe_149" data-name="Groupe 149" transform="translate(73.765 268.019)">
                <g id="Groupe_146" data-name="Groupe 146" transform="translate(12.99 20.255)">
                  <g id="Groupe_145" data-name="Groupe 145">
                    <path id="Tracé_157" data-name="Tracé 157" d="M135.311,307.155c1.911-1.115,4.365-.5,5.131,1.284,2.737,6.33,6.946,20.493-6.228,26.589-8.332,3.424-13.608-.531-13.879-6.819C120.051,321.878,124.513,313.63,135.311,307.155Z" transform="translate(-120.322 -306.595)" fill="#fff"/>
                  </g>
                </g>
                <g id="Groupe_148" data-name="Groupe 148">
                  <g id="Groupe_147" data-name="Groupe 147">
                    <path id="Tracé_158" data-name="Tracé 158" d="M145.206,322.1a3.359,3.359,0,0,0,2.11-4.7c-3.461-5.957-12.064-18.021-22.989-12.939-6.976,2.84-7.705,9.255-3.8,14.054C124.393,323.279,133.407,326.582,145.206,322.1Z" transform="translate(-118.167 -303.236)" fill="#fff"/>
                  </g>
                </g>
              </g>
              <g id="Groupe_154" data-name="Groupe 154" transform="translate(49.815 277.384)">
                <g id="Groupe_151" data-name="Groupe 151" transform="translate(10.134 21.849)">
                  <g id="Groupe_150" data-name="Groupe 150">
                    <path id="Tracé_159" data-name="Tracé 159" d="M132.662,308.86c1.978-1,4.335-.271,4.956,1.6,1.067,3.286,2.382,8.543,1.724,13.674-.669,5.071-3.437,9.882-10.237,12.287-8.525,2.888-13.523-1.76-13.216-7.958a17.527,17.527,0,0,1,4.257-10.087A32.4,32.4,0,0,1,132.662,308.86Z" transform="translate(-115.876 -308.413)" fill="#fff"/>
                  </g>
                </g>
                <g id="Groupe_153" data-name="Groupe 153">
                  <g id="Groupe_152" data-name="Groupe 152">
                    <path id="Tracé_160" data-name="Tracé 160" d="M140.344,325.059a3.5,3.5,0,0,0,2.466-4.618,37.237,37.237,0,0,0-7.711-11.226c-3.672-3.425-8.338-5.692-14.06-3.654-7.126,2.424-8.5,8.5-5,13.71a16.362,16.362,0,0,0,8.893,6.126C129.015,326.53,134.248,326.621,140.344,325.059Z" transform="translate(-114.195 -304.789)" fill="#fff"/>
                  </g>
                </g>
              </g>
              <g id="Groupe_159" data-name="Groupe 159" transform="translate(25.177 284.649)">
                <g id="Groupe_156" data-name="Groupe 156" transform="translate(7.176 23.251)">
                  <g id="Groupe_155" data-name="Groupe 155">
                    <path id="Tracé_161" data-name="Tracé 161" d="M129.78,310.144c2.062-.82,4.359.145,4.811,2.062.778,3.364,1.628,8.706.519,13.74-1.079,5.083-4.232,9.719-11.256,11.377-8.73,2.224-13.294-2.846-12.456-9a18.643,18.643,0,0,1,5.089-9.785C119.488,315.22,123.913,312.519,129.78,310.144Z" transform="translate(-111.299 -309.85)" fill="#fff"/>
                  </g>
                </g>
                <g id="Groupe_158" data-name="Groupe 158">
                  <g id="Groupe_157" data-name="Groupe 157">
                    <path id="Tracé_162" data-name="Tracé 162" d="M135.175,327.452c2.158-.44,3.545-2.5,2.87-4.353a37.447,37.447,0,0,0-6.722-11.889c-3.334-3.636-7.759-6.222-13.674-4.835-7.3,1.887-9.182,7.82-6.156,13.306a15.487,15.487,0,0,0,8.3,6.765A27.794,27.794,0,0,0,135.175,327.452Z" transform="translate(-110.108 -305.994)" fill="#fff"/>
                  </g>
                </g>
              </g>
              <g id="Groupe_164" data-name="Groupe 164" transform="translate(0 289.681)">
                <g id="Groupe_161" data-name="Groupe 161" transform="translate(4.175 24.615)">
                  <g id="Groupe_160" data-name="Groupe 160">
                    <path id="Tracé_163" data-name="Tracé 163" d="M126.762,311.072c2.122-.609,4.329.573,4.618,2.52.482,3.419.862,8.808-.681,13.692-1.549,4.787-5.034,9.484-12.185,10.394-8.911,1.26-12.987-3.883-11.636-10.051a17.9,17.9,0,0,1,5.915-9.339,27.546,27.546,0,0,1,5.957-3.979A39.848,39.848,0,0,1,126.762,311.072Z" transform="translate(-106.625 -310.911)" fill="#fff"/>
                  </g>
                </g>
                <g id="Groupe_163" data-name="Groupe 163">
                  <g id="Groupe_162" data-name="Groupe 162">
                    <path id="Tracé_164" data-name="Tracé 164" d="M129.835,329.47a3.41,3.41,0,0,0,3.244-4.033c-1.833-6.753-6.976-20.312-18.877-18.431-7.464,1.043-9.821,7.09-7.289,12.716a16.015,16.015,0,0,0,7.687,7.428,26.007,26.007,0,0,0,6.728,2.195A33.01,33.01,0,0,0,129.835,329.47Z" transform="translate(-105.933 -306.829)" fill="#fff"/>
                  </g>
                </g>
              </g>
            </g>
            <g id="Groupe_306" data-name="Groupe 306" transform="translate(0 119.844)">
              <g id="Groupe_170" data-name="Groupe 170" transform="translate(351.772 509.185)">
                <g id="Groupe_167" data-name="Groupe 167" transform="translate(1.273 25.841)">
                  <g id="Groupe_166" data-name="Groupe 166">
                    <path id="Tracé_165" data-name="Tracé 165" d="M123.713,311.636c2.177-.35,4.269.935,4.389,2.9.452,6.939-.368,21.675-14.813,22.934-8.977.507-12.619-5.119-10.762-11.087A17.466,17.466,0,0,1,109.2,317.7,33.878,33.878,0,0,1,123.713,311.636Z" transform="translate(-102.056 -311.579)" fill="#fff"/>
                  </g>
                </g>
                <g id="Groupe_169" data-name="Groupe 169">
                  <g id="Groupe_168" data-name="Groupe 168">
                    <path id="Tracé_166" data-name="Tracé 166" d="M124.546,331.038a3.379,3.379,0,0,0,3.569-3.756c-1.248-6.723-5.276-21.006-17.292-19.932-7.53.416-10.394,6.084-8.326,11.962a16.455,16.455,0,0,0,7.054,8.164C113.223,329.718,118.252,331.008,124.546,331.038Z" transform="translate(-101.845 -307.293)" fill="#fff"/>
                  </g>
                </g>
              </g>
              <g id="Groupe_175" data-name="Groupe 175" transform="translate(324.383 509.815)">
                <g id="Groupe_172" data-name="Groupe 172" transform="translate(0 26.965)">
                  <g id="Groupe_171" data-name="Groupe 171">
                    <path id="Tracé_167" data-name="Tracé 167" d="M120.418,311.9c2.195-.277,4.172,1.224,4.124,3.2-.145,6.783-2.207,21.892-16.7,21.6-9-.018-12.143-6.12-9.785-11.853C100.413,319.138,107.913,313.084,120.418,311.9Z" transform="translate(-97.302 -311.87)" fill="#fff"/>
                  </g>
                </g>
                <g id="Groupe_174" data-name="Groupe 174" transform="translate(1.719)">
                  <g id="Groupe_173" data-name="Groupe 173">
                    <path id="Tracé_168" data-name="Tracé 168" d="M118.935,332.231c2.2.109,4.064-1.543,3.877-3.5-.669-6.975-3.461-21.047-15.537-21.331-7.555.012-10.865,5.233-9.315,11.323C99.5,324.845,106.347,331.188,118.935,332.231Z" transform="translate(-97.587 -307.397)" fill="#fff"/>
                  </g>
                </g>
              </g>
              <g id="Groupe_180" data-name="Groupe 180" transform="translate(295.756 508.258)">
                <g id="Groupe_177" data-name="Groupe 177" transform="translate(0 27.921)">
                  <g id="Groupe_176" data-name="Groupe 176">
                    <path id="Tracé_169" data-name="Tracé 169" d="M117.045,311.771c2.213-.054,4.052,1.646,3.841,3.605-.386,3.425-1.375,8.736-4.094,13.077-2.7,4.245-7.247,7.94-14.4,7.012-8.941-1.013-11.594-7.012-8.736-12.643a17.937,17.937,0,0,1,8.061-7.56,27.592,27.592,0,0,1,6.765-2.364A41.549,41.549,0,0,1,117.045,311.771Z" transform="translate(-92.554 -311.77)" fill="#fff"/>
                  </g>
                </g>
                <g id="Groupe_179" data-name="Groupe 179" transform="translate(4.716)">
                  <g id="Groupe_178" data-name="Groupe 178">
                    <path id="Tracé_170" data-name="Tracé 170" d="M113.25,332.9c2.183.332,4.178-1.127,4.154-3.1-.072-7-1.658-21.4-13.65-22.573-7.488-.856-11.286,4.407-10.25,10.485a16,16,0,0,0,5.583,9.116,25.936,25.936,0,0,0,5.963,3.81A32.739,32.739,0,0,0,113.25,332.9Z" transform="translate(-93.336 -307.139)" fill="#fff"/>
                  </g>
                </g>
              </g>
              <g id="Groupe_185" data-name="Groupe 185" transform="translate(267.406 504.505)">
                <g id="Groupe_182" data-name="Groupe 182" transform="translate(0 28.709)">
                  <g id="Groupe_181" data-name="Groupe 181">
                    <path id="Tracé_171" data-name="Tracé 171" d="M113.593,311.369c2.2.163,3.883,2.05,3.509,3.955-1.32,6.789-5.848,20.806-20.167,18.431-8.8-1.893-10.919-8.145-7.591-13.481C92.684,314.908,101.028,310.591,113.593,311.369Z" transform="translate(-87.852 -311.278)" fill="#fff"/>
                  </g>
                </g>
                <g id="Groupe_184" data-name="Groupe 184" transform="translate(7.685)">
                  <g id="Groupe_183" data-name="Groupe 183">
                    <path id="Tracé_172" data-name="Tracé 172" d="M107.508,333.17a3.355,3.355,0,0,0,4.4-2.689c.506-6.855.235-21.711-11.654-23.652-7.362-1.616-11.588,3.262-11.081,9.429C89.661,322.408,95.238,330.191,107.508,333.17Z" transform="translate(-89.126 -306.516)" fill="#fff"/>
                  </g>
                </g>
              </g>
              <g id="Groupe_190" data-name="Groupe 190" transform="translate(239.531 498.521)">
                <g id="Groupe_187" data-name="Groupe 187" transform="translate(0 29.015)">
                  <g id="Groupe_186" data-name="Groupe 186">
                    <path id="Tracé_173" data-name="Tracé 173" d="M110.081,310.914c2.2.277,3.732,2.225,3.183,4.124-1.9,6.6-7.693,20.5-21.687,16.61-8.688-2.375-10.165-9.1-6.415-14.017,1.875-2.538,5-4.612,9.212-5.939A32.868,32.868,0,0,1,110.081,310.914Z" transform="translate(-83.228 -310.336)" fill="#fff"/>
                  </g>
                </g>
                <g id="Groupe_189" data-name="Groupe 189" transform="translate(10.568)">
                  <g id="Groupe_188" data-name="Groupe 188">
                    <path id="Tracé_174" data-name="Tracé 174" d="M101.772,333.012c2.1.651,4.329-.476,4.648-2.424,1.1-6.825,2.044-21.337-9.562-24.574-7.265-1.966-11.8,2.206-11.877,8.507a16.112,16.112,0,0,0,3.889,10.051A29.7,29.7,0,0,0,101.772,333.012Z" transform="translate(-84.981 -305.524)" fill="#fff"/>
                  </g>
                </g>
              </g>
              <g id="Groupe_195" data-name="Groupe 195" transform="translate(212.338 490.358)">
                <g id="Groupe_192" data-name="Groupe 192" transform="translate(0 28.946)">
                  <g id="Groupe_191" data-name="Groupe 191">
                    <path id="Tracé_175" data-name="Tracé 175" d="M106.585,310.178c2.158.488,3.509,2.586,2.8,4.425-1.254,3.214-3.575,8.1-7.331,11.618a15.625,15.625,0,0,1-6.753,3.865,15.108,15.108,0,0,1-8.959-.82c-8.453-3.123-9.381-9.828-5.2-14.458a18.574,18.574,0,0,1,9.737-5.215C95.226,308.544,100.381,308.876,106.585,310.178Z" transform="translate(-78.718 -308.971)" fill="#fff"/>
                  </g>
                </g>
                <g id="Groupe_194" data-name="Groupe 194" transform="translate(13.343)">
                  <g id="Groupe_193" data-name="Groupe 193">
                    <path id="Tracé_176" data-name="Tracé 176" d="M96.142,332.267c2.032.856,4.335-.054,4.823-1.965a37.6,37.6,0,0,0,1.176-13.614,15.7,15.7,0,0,0-2.43-6.837,12.236,12.236,0,0,0-6.126-4.866c-7.078-2.593-12.01,1.29-12.6,7.506a15.559,15.559,0,0,0,3.033,10.256A27.372,27.372,0,0,0,96.142,332.267Z" transform="translate(-80.931 -304.17)" fill="#fff"/>
                  </g>
                </g>
              </g>
              <g id="Groupe_200" data-name="Groupe 200" transform="translate(186.076 480.076)">
                <g id="Groupe_197" data-name="Groupe 197" transform="translate(0 28.498)">
                  <g id="Groupe_196" data-name="Groupe 196">
                    <path id="Tracé_177" data-name="Tracé 177" d="M103.061,309.319c2.1.705,3.25,2.93,2.382,4.7-2.972,6.113-11.106,18.811-24.225,12.6-8.067-4-8.525-10.539-3.919-14.862a17.9,17.9,0,0,1,10.153-4.365,27.327,27.327,0,0,1,7.169.078A39.845,39.845,0,0,1,103.061,309.319Z" transform="translate(-74.362 -307.191)" fill="#fff"/>
                  </g>
                </g>
                <g id="Groupe_199" data-name="Groupe 199" transform="translate(15.974)">
                  <g id="Groupe_198" data-name="Groupe 198">
                    <path id="Tracé_178" data-name="Tracé 178" d="M90.6,331.107c1.941,1.055,4.3.368,4.956-1.495,2.309-6.6,5.722-20.716-5.155-25.877-6.753-3.346-12.112.313-13.2,6.379a16.035,16.035,0,0,0,2.146,10.467,25.788,25.788,0,0,0,4.311,5.607A33.556,33.556,0,0,0,90.6,331.107Z" transform="translate(-77.011 -302.464)" fill="#fff"/>
                  </g>
                </g>
              </g>
              <g id="Groupe_205" data-name="Groupe 205" transform="translate(160.948 467.82)">
                <g id="Groupe_202" data-name="Groupe 202" transform="translate(0 27.652)">
                  <g id="Groupe_201" data-name="Groupe 201">
                    <path id="Tracé_179" data-name="Tracé 179" d="M99.518,308.31c2.014.9,2.96,3.238,1.947,4.926-3.527,5.884-12.6,17.611-25.22,10.448-7.645-4.751-7.518-11.335-2.568-15.229C78.664,304.506,87.949,303.336,99.518,308.31Z" transform="translate(-70.194 -305.018)" fill="#fff"/>
                  </g>
                </g>
                <g id="Groupe_204" data-name="Groupe 204" transform="translate(18.413)">
                  <g id="Groupe_203" data-name="Groupe 203">
                    <path id="Tracé_180" data-name="Tracé 180" d="M85.191,329.47c1.827,1.242,4.238.784,5.046-1.018,2.834-6.319,7.585-20.307-2.9-26.239-6.4-3.991-12.034-.838-13.656,5.131C72.09,313.258,74.658,322.525,85.191,329.47Z" transform="translate(-73.248 -300.432)" fill="#fff"/>
                  </g>
                </g>
              </g>
              <g id="Groupe_210" data-name="Groupe 210" transform="translate(137.087 453.687)">
                <g id="Groupe_207" data-name="Groupe 207" transform="translate(0 26.47)">
                  <g id="Groupe_206" data-name="Groupe 206">
                    <path id="Tracé_181" data-name="Tracé 181" d="M96.017,307.1c1.935,1.067,2.749,3.37,1.58,4.98-2.038,2.785-5.547,6.927-10.093,9.387-4.48,2.382-10.026,2.985-15.947-1.121-7.283-5.276-6.481-11.974-1.254-15.38a17.435,17.435,0,0,1,10.672-2.448A32.926,32.926,0,0,1,96.017,307.1Z" transform="translate(-66.237 -302.478)" fill="#fff"/>
                  </g>
                </g>
                <g id="Groupe_209" data-name="Groupe 209" transform="translate(20.657)">
                  <g id="Groupe_208" data-name="Groupe 208">
                    <path id="Tracé_182" data-name="Tracé 182" d="M79.98,327.374a3.456,3.456,0,0,0,5.179-.675,37.2,37.2,0,0,0,4.606-12.818c.663-5.016-.253-10.093-5.257-13.541-6.1-4.426-11.883-1.917-14.048,3.943a16.46,16.46,0,0,0,.235,10.792C72.142,319.078,75.144,323.341,79.98,327.374Z" transform="translate(-69.663 -298.087)" fill="#fff"/>
                  </g>
                </g>
              </g>
              <g id="Groupe_215" data-name="Groupe 215" transform="translate(114.664 437.779)">
                <g id="Groupe_212" data-name="Groupe 212" transform="translate(0 24.928)">
                  <g id="Groupe_211" data-name="Groupe 211">
                    <path id="Tracé_183" data-name="Tracé 183" d="M92.661,305.652c1.869,1.182,2.436,3.605,1.146,5.095-4.449,5.143-15.633,15.441-26.649,6-3.455-2.852-4.835-5.993-4.618-8.778a8.23,8.23,0,0,1,4.654-6.614C72.662,298.447,82.236,298.628,92.661,305.652Z" transform="translate(-62.517 -299.584)" fill="#fff"/>
                  </g>
                </g>
                <g id="Groupe_214" data-name="Groupe 214" transform="translate(22.671)">
                  <g id="Groupe_213" data-name="Groupe 213">
                    <path id="Tracé_184" data-name="Tracé 184" d="M75.094,324.745a3.479,3.479,0,0,0,5.215-.229c3.919-5.794,10.756-18.455,1.616-26.329-2.93-2.406-5.83-3.111-8.338-2.562a9.133,9.133,0,0,0-6.035,5.33C64.857,306.634,66.021,315.955,75.094,324.745Z" transform="translate(-66.278 -295.449)" fill="#fff"/>
                  </g>
                </g>
              </g>
              <g id="Groupe_220" data-name="Groupe 220" transform="translate(93.868 420.176)">
                <g id="Groupe_217" data-name="Groupe 217" transform="translate(0 23.141)">
                  <g id="Groupe_216" data-name="Groupe 216">
                    <path id="Tracé_185" data-name="Tracé 185" d="M89.406,303.979c1.742,1.357,2.086,3.828.675,5.2-2.484,2.393-6.638,5.86-11.51,7.482s-10.569,1.411-15.543-3.8c-6.349-6.379-4.437-12.812,1.308-15.3a18.372,18.372,0,0,1,11.033-.681C79.729,297.787,84.329,300.181,89.406,303.979Z" transform="translate(-59.068 -296.368)" fill="#fff"/>
                  </g>
                </g>
                <g id="Groupe_219" data-name="Groupe 219" transform="translate(24.486)">
                  <g id="Groupe_218" data-name="Groupe 218">
                    <path id="Tracé_186" data-name="Tracé 186" d="M70.464,321.7c1.477,1.634,3.949,1.779,5.191.247a37.628,37.628,0,0,0,6.765-11.883c1.465-4.787,1.3-9.8-2.894-14.217-5.33-5.336-11.479-3.822-14.6,1.561a15.664,15.664,0,0,0-1.507,10.581A27.2,27.2,0,0,0,70.464,321.7Z" transform="translate(-63.129 -292.529)" fill="#fff"/>
                  </g>
                </g>
              </g>
              <g id="Groupe_225" data-name="Groupe 225" transform="translate(74.885 401.023)">
                <g id="Groupe_222" data-name="Groupe 222" transform="translate(0 21.101)">
                  <g id="Groupe_221" data-name="Groupe 221">
                    <path id="Tracé_187" data-name="Tracé 187" d="M86.218,302.13c1.61,1.519,1.724,4.021.2,5.269-5.263,4.317-17.912,12.438-27.264,1.351-5.655-7-3.334-13.138,2.647-15.151a17.886,17.886,0,0,1,11.045.271,27.43,27.43,0,0,1,6.469,3.063A37.349,37.349,0,0,1,86.218,302.13Z" transform="translate(-55.92 -292.852)" fill="#fff"/>
                  </g>
                </g>
                <g id="Groupe_224" data-name="Groupe 224" transform="translate(26.007)">
                  <g id="Groupe_223" data-name="Groupe 223">
                    <path id="Tracé_188" data-name="Tracé 188" d="M66.14,318.29a3.406,3.406,0,0,0,5.125.717c4.841-5.034,13.867-16.459,6.1-25.678-4.733-5.873-11.13-4.781-14.651.277A16.072,16.072,0,0,0,60.3,304.025a25.766,25.766,0,0,0,1.574,6.9A35.813,35.813,0,0,0,66.14,318.29Z" transform="translate(-60.233 -289.352)" fill="#fff"/>
                  </g>
                </g>
              </g>
              <g id="Groupe_230" data-name="Groupe 230" transform="translate(57.793 380.489)">
                <g id="Groupe_227" data-name="Groupe 227" transform="translate(0 18.827)">
                  <g id="Groupe_226" data-name="Groupe 226">
                    <path id="Tracé_189" data-name="Tracé 189" d="M83.178,300.094c1.459,1.658,1.339,4.178-.271,5.275-5.691,3.907-18.781,10.762-27.288-.995-4.968-7.506-2.1-13.439,4.015-14.922C65.8,287.951,74.75,290.737,83.178,300.094Z" transform="translate(-53.085 -289.07)" fill="#fff"/>
                  </g>
                </g>
                <g id="Groupe_229" data-name="Groupe 229" transform="translate(27.236)">
                  <g id="Groupe_228" data-name="Groupe 228">
                    <path id="Tracé_190" data-name="Tracé 190" d="M62.2,314.5a3.362,3.362,0,0,0,5.022,1.164c5.173-4.54,15.362-15.3,8.278-25.051-4.142-6.3-10.581-5.782-14.542-1.031C57.029,294.3,55.528,303.776,62.2,314.5Z" transform="translate(-57.602 -285.947)" fill="#fff"/>
                  </g>
                </g>
              </g>
              <g id="Groupe_235" data-name="Groupe 235" transform="translate(42.697 358.737)">
                <g id="Groupe_232" data-name="Groupe 232" transform="translate(0 16.331)">
                  <g id="Groupe_231" data-name="Groupe 231">
                    <path id="Tracé_191" data-name="Tracé 191" d="M80.318,297.862c1.339,1.76,1.1,4.2-.627,5.173-3.015,1.688-7.922,3.991-13.089,4.335-5.083.313-10.358-1.465-14.03-7.663-4.449-7.826-.892-13.6,5.263-14.506a17.357,17.357,0,0,1,10.708,2.225A32.546,32.546,0,0,1,80.318,297.862Z" transform="translate(-50.581 -285.048)" fill="#fff"/>
                  </g>
                </g>
                <g id="Groupe_234" data-name="Groupe 234" transform="translate(28.193)">
                  <g id="Groupe_233" data-name="Groupe 233">
                    <path id="Tracé_192" data-name="Tracé 192" d="M58.64,310.339a3.478,3.478,0,0,0,5,1.531,37.251,37.251,0,0,0,9.526-9.737c2.671-4.275,3.973-9.279.862-14.5-3.726-6.548-9.99-6.686-14.416-2.261a16.542,16.542,0,0,0-4.293,9.912C55,299.517,55.92,304.66,58.64,310.339Z" transform="translate(-55.257 -282.339)" fill="#fff"/>
                  </g>
                </g>
              </g>
              <g id="Groupe_240" data-name="Groupe 240" transform="translate(29.736 335.913)">
                <g id="Groupe_237" data-name="Groupe 237" transform="translate(0 13.664)">
                  <g id="Groupe_236" data-name="Groupe 236">
                    <path id="Tracé_193" data-name="Tracé 193" d="M77.756,295.371c1.2,1.857.705,4.293-1.091,5.112-3.147,1.411-8.23,3.28-13.379,3.166-5.209-.066-10.3-2.3-13.342-8.839-3.9-8.115.277-13.614,6.445-13.969S71.208,284.645,77.756,295.371Z" transform="translate(-48.431 -280.82)" fill="#fff"/>
                  </g>
                </g>
                <g id="Groupe_239" data-name="Groupe 239" transform="translate(28.934)">
                  <g id="Groupe_238" data-name="Groupe 238">
                    <path id="Tracé_194" data-name="Tracé 194" d="M55.55,305.78c.856,2.032,3.147,3,4.835,1.972,6-3.642,17.442-12.281,12.456-23.248-3.3-6.777-9.393-7.518-14.229-3.473S50.974,294.011,55.55,305.78Z" transform="translate(-53.23 -278.553)" fill="#fff"/>
                  </g>
                </g>
              </g>
              <g id="Groupe_245" data-name="Groupe 245" transform="translate(19.108 312.17)">
                <g id="Groupe_242" data-name="Groupe 242" transform="translate(0 10.837)">
                  <g id="Groupe_241" data-name="Groupe 241">
                    <path id="Tracé_195" data-name="Tracé 195" d="M75.347,292.718c1.013,1.965.289,4.359-1.568,5.01-3.256,1.14-8.477,2.556-13.578,1.99-5.052-.573-10.237-3.123-12.547-9.954-3.021-8.489,1.284-13.493,7.567-13.349a18.1,18.1,0,0,1,10.34,3.991C69.095,283.066,72.345,287.141,75.347,292.718Z" transform="translate(-46.668 -276.413)" fill="#fff"/>
                  </g>
                </g>
                <g id="Groupe_244" data-name="Groupe 244" transform="translate(29.2)">
                  <g id="Groupe_243" data-name="Groupe 243">
                    <path id="Tracé_196" data-name="Tracé 196" d="M53,300.943a3.43,3.43,0,0,0,4.606,2.394,37.7,37.7,0,0,0,11.118-7.97c3.376-3.756,5.233-8.344,3.31-14.108-2.526-7.1-8.869-8.254-13.927-4.679a15.958,15.958,0,0,0-5.77,8.965A26.888,26.888,0,0,0,53,300.943Z" transform="translate(-51.511 -274.615)" fill="#fff"/>
                  </g>
                </g>
              </g>
              <g id="Groupe_250" data-name="Groupe 250" transform="translate(10.771 287.656)">
                <g id="Groupe_247" data-name="Groupe 247" transform="translate(0 7.896)">
                  <g id="Groupe_246" data-name="Groupe 246">
                    <path id="Tracé_197" data-name="Tracé 197" d="M73.185,289.929c.814,2.056-.139,4.383-2.044,4.878-6.62,1.724-21.391,3.762-25.328-10.214-2.146-8.742,2.55-13.354,8.815-12.667C61,272.6,68.356,278.3,73.185,289.929Z" transform="translate(-45.286 -271.859)" fill="#fff"/>
                  </g>
                </g>
                <g id="Groupe_249" data-name="Groupe 249" transform="translate(29.186)">
                  <g id="Groupe_248" data-name="Groupe 248">
                    <path id="Tracé_198" data-name="Tracé 198" d="M50.914,295.883a3.375,3.375,0,0,0,4.329,2.8c6.469-2.532,19.576-9.158,16.3-20.746-1.785-7.32-8.025-9.014-13.354-5.9C52.958,275.124,48.2,283.559,50.914,295.883Z" transform="translate(-50.126 -270.549)" fill="#fff"/>
                  </g>
                </g>
              </g>
              <g id="Groupe_255" data-name="Groupe 255" transform="translate(4.931 263.457)">
                <g id="Groupe_252" data-name="Groupe 252" transform="translate(0 5.005)">
                  <g id="Groupe_251" data-name="Groupe 251">
                    <path id="Tracé_199" data-name="Tracé 199" d="M71.334,287.077c.669,2.11-.38,4.329-2.339,4.66-3.406.567-8.8,1.079-13.783-.331-4.89-1.423-9.249-4.878-10.611-11.956-1.592-8.857,3.762-13.1,9.839-11.877a17.535,17.535,0,0,1,9.339,5.71A32.45,32.45,0,0,1,71.334,287.077Z" transform="translate(-44.317 -267.366)" fill="#fff"/>
                  </g>
                </g>
                <g id="Groupe_254" data-name="Groupe 254" transform="translate(28.924)">
                  <g id="Groupe_253" data-name="Groupe 253">
                    <path id="Tracé_200" data-name="Tracé 200" d="M49.323,290.793a3.483,3.483,0,0,0,4.19,3.129,37.184,37.184,0,0,0,12.251-5.951c3.949-3.123,6.873-7.4,5.716-13.354-1.344-7.416-7.138-9.677-12.818-6.994a16.3,16.3,0,0,0-7.374,7.88C49.559,279.374,48.684,284.529,49.323,290.793Z" transform="translate(-49.114 -266.536)" fill="#fff"/>
                  </g>
                </g>
              </g>
              <g id="Groupe_260" data-name="Groupe 260" transform="translate(1.301 238.019)">
                <g id="Groupe_257" data-name="Groupe 257" transform="translate(0 1.996)">
                  <g id="Groupe_256" data-name="Groupe 256">
                    <path id="Tracé_201" data-name="Tracé 201" d="M69.8,283.927c.5,2.159-.8,4.287-2.761,4.449-3.437.271-8.851.313-13.656-1.531a15.778,15.778,0,0,1-6.427-4.389,15.3,15.3,0,0,1-3.153-8.417c-.88-8.959,4.727-12.715,10.732-10.979a18.491,18.491,0,0,1,8.947,6.475C66.325,272.99,68.291,277.778,69.8,283.927Z" transform="translate(-43.715 -262.648)" fill="#fff"/>
                  </g>
                </g>
                <g id="Groupe_259" data-name="Groupe 259" transform="translate(28.179)">
                  <g id="Groupe_258" data-name="Groupe 258">
                    <path id="Tracé_202" data-name="Tracé 202" d="M48.451,285.321c.115,2.2,1.941,3.877,3.871,3.485a37.745,37.745,0,0,0,12.764-4.877,15.717,15.717,0,0,0,5.089-5.167,12.13,12.13,0,0,0,1.718-7.651c-.76-7.506-6.421-10.25-12.263-8.067a15.541,15.541,0,0,0-7.892,7.211A27.465,27.465,0,0,0,48.451,285.321Z" transform="translate(-48.389 -262.316)" fill="#fff"/>
                  </g>
                </g>
              </g>
              <g id="Groupe_265" data-name="Groupe 265" transform="translate(0 211.367)">
                <g id="Groupe_262" data-name="Groupe 262">
                  <g id="Groupe_261" data-name="Groupe 261">
                    <path id="Tracé_203" data-name="Tracé 203" d="M68.622,280.663c.283,2.195-1.218,4.2-3.189,4.2-6.819-.006-21.711-1.773-21.934-16.261.1-8.989,5.8-12.263,11.7-10.02a17.748,17.748,0,0,1,8.338,7.211,29.62,29.62,0,0,1,3.063,6.475A37.124,37.124,0,0,1,68.622,280.663Z" transform="translate(-43.499 -257.896)" fill="#fff"/>
                  </g>
                </g>
                <g id="Groupe_264" data-name="Groupe 264" transform="translate(27.288 0.994)">
                  <g id="Groupe_263" data-name="Groupe 263">
                    <path id="Tracé_204" data-name="Tracé 204" d="M48.031,279.743a3.4,3.4,0,0,0,3.5,3.81c6.921-.814,21.192-3.907,21.005-15.971.1-7.549-5.523-10.768-11.461-9.086a16.115,16.115,0,0,0-8.507,6.518,24.071,24.071,0,0,0-3.153,6.331A35.512,35.512,0,0,0,48.031,279.743Z" transform="translate(-48.025 -258.061)" fill="#fff"/>
                  </g>
                </g>
              </g>
              <g id="Groupe_270" data-name="Groupe 270" transform="translate(1.076 182.719)">
                <g id="Groupe_267" data-name="Groupe 267">
                  <g id="Groupe_266" data-name="Groupe 266">
                    <path id="Tracé_205" data-name="Tracé 205" d="M67.694,277.3c.012,2.207-1.507,4.088-3.5,3.913-6.921-.591-21.433-3.6-20.475-18.069.79-8.965,6.952-11.721,12.559-9a17.4,17.4,0,0,1,7.579,7.892A33.058,33.058,0,0,1,67.694,277.3Z" transform="translate(-43.677 -253.144)" fill="#fff"/>
                  </g>
                </g>
                <g id="Groupe_269" data-name="Groupe 269" transform="translate(26.128 3.997)">
                  <g id="Groupe_268" data-name="Groupe 268">
                    <path id="Tracé_206" data-name="Tracé 206" d="M48.065,274.064a3.406,3.406,0,0,0,3.207,4.094c6.837-.229,21.494-2.092,22.284-14.126.663-7.506-4.462-11.172-10.605-10.014a16.488,16.488,0,0,0-9.134,5.752C51.115,263.073,49.029,267.842,48.065,274.064Z" transform="translate(-48.011 -253.807)" fill="#fff"/>
                  </g>
                </g>
              </g>
              <g id="Groupe_275" data-name="Groupe 275" transform="translate(4.56 154.27)">
                <g id="Groupe_272" data-name="Groupe 272">
                  <g id="Groupe_271" data-name="Groupe 271">
                    <path id="Tracé_207" data-name="Tracé 207" d="M67.152,273.877c-.054,2.213-1.839,3.943-3.78,3.605-3.4-.609-8.646-1.941-12.836-4.95-4.263-3-7.211-7.717-6.011-14.826,1.381-8.9,7.892-11.087,13.2-7.892S67.833,261.331,67.152,273.877Z" transform="translate(-44.255 -248.426)" fill="#fff"/>
                  </g>
                </g>
                <g id="Groupe_274" data-name="Groupe 274" transform="translate(24.966 6.978)">
                  <g id="Groupe_273" data-name="Groupe 273">
                    <path id="Tracé_208" data-name="Tracé 208" d="M48.48,268.334c-.44,2.159.91,4.251,2.876,4.359,7.018.386,21.313-.277,23.411-12.149,1.127-7.452-3.527-11.516-9.785-10.9C58.711,250.241,51.368,256.041,48.48,268.334Z" transform="translate(-48.396 -249.583)" fill="#fff"/>
                  </g>
                </g>
              </g>
              <g id="Groupe_280" data-name="Groupe 280" transform="translate(10.347 126.241)">
                <g id="Groupe_277" data-name="Groupe 277">
                  <g id="Groupe_276" data-name="Groupe 276">
                    <path id="Tracé_209" data-name="Tracé 209" d="M67.045,270.41c-.277,2.194-2.231,3.762-4.136,3.256-3.328-.9-8.435-2.683-12.317-6.029-3.8-3.322-6.716-8.368-4.739-15.3,2.345-8.7,8.67-10.412,13.813-6.735a18.026,18.026,0,0,1,6.258,9.128C67.293,258.906,67.739,264.121,67.045,270.41Z" transform="translate(-45.215 -243.777)" fill="#fff"/>
                  </g>
                </g>
                <g id="Groupe_279" data-name="Groupe 279" transform="translate(23.76 9.888)">
                  <g id="Groupe_278" data-name="Groupe 278">
                    <path id="Tracé_210" data-name="Tracé 210" d="M49.343,262.632a3.422,3.422,0,0,0,2.436,4.576,37.944,37.944,0,0,0,13.692-.3c4.944-1.182,9-3.943,10.69-9.773,1.965-7.271-2.671-11.829-8.827-11.72a15.921,15.921,0,0,0-9.839,4.13A26.709,26.709,0,0,0,49.343,262.632Z" transform="translate(-49.156 -245.417)" fill="#fff"/>
                  </g>
                </g>
              </g>
              <g id="Groupe_285" data-name="Groupe 285" transform="translate(18.625 98.9)">
                <g id="Groupe_282" data-name="Groupe 282">
                  <g id="Groupe_281" data-name="Groupe 281">
                    <path id="Tracé_211" data-name="Tracé 211" d="M67.116,266.869c-.494,2.152-2.6,3.539-4.449,2.864-6.451-2.321-19.733-8.959-15.127-22.73,3.183-8.423,9.671-9.568,14.446-5.462C66.832,245.676,69.744,254.557,67.116,266.869Z" transform="translate(-46.588 -239.242)" fill="#fff"/>
                  </g>
                </g>
                <g id="Groupe_284" data-name="Groupe 284" transform="translate(22.271 12.688)">
                  <g id="Groupe_283" data-name="Groupe 283">
                    <path id="Tracé_212" data-name="Tracé 212" d="M50.607,256.936a3.368,3.368,0,0,0,1.984,4.751c6.753,1.561,21.373,3.515,25.171-7.91,2.683-7.042-1.5-11.962-7.669-12.4C64,240.947,55.37,245.246,50.607,256.936Z" transform="translate(-50.282 -241.346)" fill="#fff"/>
                  </g>
                </g>
              </g>
              <g id="Groupe_290" data-name="Groupe 290" transform="translate(29.154 72.408)">
                <g id="Groupe_287" data-name="Groupe 287">
                  <g id="Groupe_286" data-name="Groupe 286">
                    <path id="Tracé_213" data-name="Tracé 213" d="M67.534,263.307c-.681,2.1-2.773,3.346-4.582,2.508-3.123-1.465-7.868-4.106-11.16-8.1-3.2-3.937-4.853-9.267-1.965-15.869,3.78-8.169,10.521-8.664,14.856-4.19a17.408,17.408,0,0,1,4.449,10A32.82,32.82,0,0,1,67.534,263.307Z" transform="translate(-48.335 -234.848)" fill="#fff"/>
                  </g>
                </g>
                <g id="Groupe_289" data-name="Groupe 289" transform="translate(20.752 15.35)">
                  <g id="Groupe_288" data-name="Groupe 288">
                    <path id="Tracé_214" data-name="Tracé 214" d="M52.225,251.329a3.458,3.458,0,0,0,1.664,4.95,37.333,37.333,0,0,0,13.463,2.044c5.052-.314,9.858-2.189,12.275-7.754,3.159-6.837-.4-12.022-6.572-13.029a16.54,16.54,0,0,0-10.551,2.3C58.864,242.038,55.252,245.806,52.225,251.329Z" transform="translate(-51.777 -237.394)" fill="#fff"/>
                  </g>
                </g>
              </g>
              <g id="Groupe_295" data-name="Groupe 295" transform="translate(41.859 46.953)">
                <g id="Groupe_292" data-name="Groupe 292">
                  <g id="Groupe_291" data-name="Groupe 291">
                    <path id="Tracé_215" data-name="Tracé 215" d="M68.41,259.808c-.808,2.062-3.075,3.087-4.787,2.1-5.89-3.37-18.166-12.384-11-25,4.3-7.916,11.232-7.717,15.115-2.924C71.642,238.8,73.3,248.232,68.41,259.808Z" transform="translate(-50.442 -230.626)" fill="#fff"/>
                  </g>
                </g>
                <g id="Groupe_294" data-name="Groupe 294" transform="translate(19.292 17.827)">
                  <g id="Groupe_293" data-name="Groupe 293">
                    <path id="Tracé_216" data-name="Tracé 216" d="M54.241,245.932c-1.152,1.881-.591,4.3,1.224,5.077,6.445,2.737,20.167,7.006,26.148-3.461,3.575-6.638.645-12.01-5.474-13.571C70.043,232.409,61.126,235.345,54.241,245.932Z" transform="translate(-53.642 -233.583)" fill="#fff"/>
                  </g>
                </g>
              </g>
              <g id="Groupe_300" data-name="Groupe 300" transform="translate(56.734 22.745)">
                <g id="Groupe_297" data-name="Groupe 297">
                  <g id="Groupe_296" data-name="Groupe 296">
                    <path id="Tracé_217" data-name="Tracé 217" d="M69.567,256.361c-1,1.972-3.364,2.785-4.98,1.658-2.828-1.978-7.024-5.39-9.544-9.864-2.514-4.45-3.425-10.111.748-15.989,5.064-7.434,11.715-6.813,15.26-1.64a18.3,18.3,0,0,1,2.791,10.7C73.775,245.665,72.328,250.663,69.567,256.361Z" transform="translate(-52.909 -226.611)" fill="#fff"/>
                  </g>
                </g>
                <g id="Groupe_299" data-name="Groupe 299" transform="translate(17.678 20.136)">
                  <g id="Groupe_298" data-name="Groupe 298">
                    <path id="Tracé_218" data-name="Tracé 218" d="M56.654,240.722a3.438,3.438,0,0,0,.748,5.143,37.688,37.688,0,0,0,12.963,4.365c4.992.531,9.858-.609,13.391-5.559,4.238-6.24,1.544-12.01-4.329-14.03a15.672,15.672,0,0,0-10.659.549A27.031,27.031,0,0,0,56.654,240.722Z" transform="translate(-55.841 -229.95)" fill="#fff"/>
                  </g>
                </g>
              </g>
              <g id="Groupe_305" data-name="Groupe 305" transform="translate(73.65)">
                <g id="Groupe_302" data-name="Groupe 302">
                  <g id="Groupe_301" data-name="Groupe 301">
                    <path id="Tracé_219" data-name="Tracé 219" d="M70.982,252.929c-1.188,1.869-3.624,2.46-5.137,1.2-5.257-4.347-15.615-15.193-6.536-26.5,5.794-6.879,12.269-5.776,15.386-.289a17.843,17.843,0,0,1,1.839,10.883,28.739,28.739,0,0,1-1.76,6.945A37.17,37.17,0,0,1,70.982,252.929Z" transform="translate(-55.715 -222.838)" fill="#fff"/>
                  </g>
                </g>
                <g id="Groupe_304" data-name="Groupe 304" transform="translate(15.943 22.225)">
                  <g id="Groupe_303" data-name="Groupe 303">
                    <path id="Tracé_220" data-name="Tracé 220" d="M59.408,235.705c-1.489,1.628-1.387,4.088.271,5.161,5.854,3.78,18.823,10.479,26.371,1.079,4.865-5.758,2.58-11.823-3.069-14.313a16.055,16.055,0,0,0-10.69-.392,24.478,24.478,0,0,0-6.463,2.876A35.275,35.275,0,0,0,59.408,235.705Z" transform="translate(-58.359 -226.524)" fill="#fff"/>
                  </g>
                </g>
              </g>
            </g>
            <g id="Groupe_447" data-name="Groupe 447" transform="translate(91.723)">
              <g id="Groupe_311" data-name="Groupe 311" transform="translate(0 99.376)">
                <g id="Groupe_308" data-name="Groupe 308">
                  <g id="Groupe_307" data-name="Groupe 307">
                    <path id="Tracé_221" data-name="Tracé 221" d="M72.631,249.684c-1.381,1.718-3.78,2.177-5.191.79C62.466,245.62,53.2,234.1,63.093,223.5c6.367-6.355,12.794-4.655,15.422,1.043a17.575,17.575,0,0,1,.868,10.937A34.338,34.338,0,0,1,72.631,249.684Z" transform="translate(-58.712 -219.443)" fill="#fff"/>
                  </g>
                </g>
                <g id="Groupe_310" data-name="Groupe 310" transform="translate(14.258 23.983)">
                  <g id="Groupe_309" data-name="Groupe 309">
                    <path id="Tracé_222" data-name="Tracé 222" d="M62.354,231.125a3.392,3.392,0,0,0-.133,5.191c5.42,4.166,17.949,12.064,26.166,3.232,5.348-5.312,3.636-11.479-1.815-14.458S71.621,222.552,62.354,231.125Z" transform="translate(-61.077 -223.421)" fill="#fff"/>
                  </g>
                </g>
              </g>
              <g id="Groupe_316" data-name="Groupe 316" transform="translate(20.415 79.835)">
                <g id="Groupe_313" data-name="Groupe 313">
                  <g id="Groupe_312" data-name="Groupe 312">
                    <path id="Tracé_223" data-name="Tracé 223" d="M74.648,246.48c-1.441,1.682-3.907,1.893-5.191.4-4.48-5.2-12.92-17.677-2.014-27.245,6.753-5.945,13.168-3.509,15.236,2.321,1.091,2.96,1.133,6.728-.072,10.967A33.057,33.057,0,0,1,74.648,246.48Z" transform="translate(-62.099 -216.202)" fill="#fff"/>
                  </g>
                </g>
                <g id="Groupe_315" data-name="Groupe 315" transform="translate(12.569 25.58)">
                  <g id="Groupe_314" data-name="Groupe 314">
                    <path id="Tracé_224" data-name="Tracé 224" d="M65.647,226.728c-1.7,1.393-1.978,3.871-.525,5.2,5.107,4.679,16.719,13.415,25.8,5.474,5.643-4.992,4.624-11.1-.6-14.6a16.126,16.126,0,0,0-10.539-2.255A29.575,29.575,0,0,0,65.647,226.728Z" transform="translate(-64.183 -220.445)" fill="#fff"/>
                  </g>
                </g>
              </g>
              <g id="Groupe_321" data-name="Groupe 321" transform="translate(42.438 62.169)">
                <g id="Groupe_318" data-name="Groupe 318">
                  <g id="Groupe_317" data-name="Groupe 317">
                    <path id="Tracé_225" data-name="Tracé 225" d="M76.981,243.478c-1.6,1.537-4.088,1.519-5.239-.078-2-2.81-4.817-7.428-5.71-12.5a15.58,15.58,0,0,1,.464-7.765,15.271,15.271,0,0,1,5.589-7.042c7.217-5.384,13.373-2.436,14.952,3.575a18.609,18.609,0,0,1-.977,10.979C84.56,234.856,81.491,239.034,76.981,243.478Z" transform="translate(-65.751 -213.272)" fill="#fff"/>
                  </g>
                </g>
                <g id="Groupe_320" data-name="Groupe 320" transform="translate(10.821 26.957)">
                  <g id="Groupe_319" data-name="Groupe 319">
                    <path id="Tracé_226" data-name="Tracé 226" d="M69.294,222.7a3.459,3.459,0,0,0-.995,5.113,37.655,37.655,0,0,0,10.75,8.435,15.737,15.737,0,0,0,7.054,1.712,12.107,12.107,0,0,0,7.434-2.472c6.029-4.528,5.517-10.726.621-14.645A15.567,15.567,0,0,0,83.9,217.754,27.7,27.7,0,0,0,69.294,222.7Z" transform="translate(-67.546 -217.743)" fill="#fff"/>
                  </g>
                </g>
              </g>
              <g id="Groupe_326" data-name="Groupe 326" transform="translate(65.898 46.552)">
                <g id="Groupe_323" data-name="Groupe 323">
                  <g id="Groupe_322" data-name="Groupe 322">
                    <path id="Tracé_227" data-name="Tracé 227" d="M79.534,240.588c-1.73,1.375-4.22,1.134-5.227-.561-1.754-2.972-4.16-7.814-4.6-12.92-.41-5.04,1.043-10.666,7.3-14.253,7.741-4.588,13.463-1.4,14.572,4.823a17.962,17.962,0,0,1-1.887,10.907C87.758,232.539,84.43,236.578,79.534,240.588Z" transform="translate(-69.642 -210.682)" fill="#fff"/>
                  </g>
                </g>
                <g id="Groupe_325" data-name="Groupe 325" transform="translate(9.042 27.998)">
                  <g id="Groupe_324" data-name="Groupe 324">
                    <path id="Tracé_228" data-name="Tracé 228" d="M73.186,219.048a3.415,3.415,0,0,0-1.453,4.974,37.767,37.767,0,0,0,10,9.351c4.359,2.6,9.2,3.479,14.488.476,6.487-3.841,6.349-10.34,1.863-14.56a15.877,15.877,0,0,0-9.924-3.907A26.753,26.753,0,0,0,73.186,219.048Z" transform="translate(-71.142 -215.326)" fill="#fff"/>
                  </g>
                </g>
              </g>
              <g id="Groupe_331" data-name="Groupe 331" transform="translate(90.557 33.048)">
                <g id="Groupe_328" data-name="Groupe 328">
                  <g id="Groupe_327" data-name="Groupe 327">
                    <path id="Tracé_229" data-name="Tracé 229" d="M82.363,237.876c-1.857,1.2-4.323.717-5.179-1.055-3-6.156-7.886-20.222,5.034-26.829,8.157-3.822,13.6-.121,14.15,6.156C96.966,222.514,92.83,230.87,82.363,237.876Z" transform="translate(-73.732 -208.442)" fill="#fff"/>
                  </g>
                </g>
                <g id="Groupe_330" data-name="Groupe 330" transform="translate(7.319 28.694)">
                  <g id="Groupe_329" data-name="Groupe 329">
                    <path id="Tracé_230" data-name="Tracé 230" d="M77.29,215.846a3.378,3.378,0,0,0-1.9,4.793c3.75,5.842,12.836,17.412,23.55,11.914,6.831-3.183,7.265-9.634,3.159-14.253C98.042,213.766,88.847,210.782,77.29,215.846Z" transform="translate(-74.946 -213.201)" fill="#fff"/>
                  </g>
                </g>
              </g>
              <g id="Groupe_336" data-name="Groupe 336" transform="translate(116.255 21.724)">
                <g id="Groupe_333" data-name="Groupe 333">
                  <g id="Groupe_332" data-name="Groupe 332">
                    <path id="Tracé_231" data-name="Tracé 231" d="M85.436,235.379c-1.983.977-4.329.452-5.04-1.423-2.49-6.481-6.132-20.879,7.331-26.323,8.429-3.171,13.584,1.133,13.571,7.38a17.5,17.5,0,0,1-3.792,10.28A33.5,33.5,0,0,1,85.436,235.379Z" transform="translate(-77.995 -206.564)" fill="#fff"/>
                  </g>
                </g>
                <g id="Groupe_335" data-name="Groupe 335" transform="translate(5.701 29.156)">
                  <g id="Groupe_334" data-name="Groupe 334">
                    <path id="Tracé_232" data-name="Tracé 232" d="M81.537,213.048a3.417,3.417,0,0,0-2.273,4.685c3.2,6.053,11.25,18.4,22.416,13.879,7.048-2.647,8.1-8.893,4.389-13.9a16.439,16.439,0,0,0-9.152-5.7C92.751,210.98,87.56,211.21,81.537,213.048Z" transform="translate(-78.94 -211.4)" fill="#fff"/>
                  </g>
                </g>
              </g>
              <g id="Groupe_341" data-name="Groupe 341" transform="translate(142.809 12.682)">
                <g id="Groupe_338" data-name="Groupe 338">
                  <g id="Groupe_337" data-name="Groupe 337">
                    <path id="Tracé_233" data-name="Tracé 233" d="M88.754,233.2c-2.014.922-4.347.072-4.89-1.827-1.869-6.542-4.359-21.536,9.6-25.575,8.6-2.671,13.433,2.333,12.854,8.465C105.744,220.421,100.348,228.355,88.754,233.2Z" transform="translate(-82.399 -205.064)" fill="#fff"/>
                  </g>
                </g>
                <g id="Groupe_340" data-name="Groupe 340" transform="translate(4.158 29.322)">
                  <g id="Groupe_339" data-name="Groupe 339">
                    <path id="Tracé_234" data-name="Tracé 234" d="M85.973,210.806a3.478,3.478,0,0,0-2.665,4.492c2.7,6.445,9.55,19.106,21.126,15.784,7.187-2.267,8.845-8.133,5.559-13.535C106.725,212.162,98.3,208.057,85.973,210.806Z" transform="translate(-83.089 -209.927)" fill="#fff"/>
                  </g>
                </g>
              </g>
              <g id="Groupe_346" data-name="Groupe 346" transform="translate(169.95 6.111)">
                <g id="Groupe_343" data-name="Groupe 343">
                  <g id="Groupe_342" data-name="Groupe 342">
                    <path id="Tracé_235" data-name="Tracé 235" d="M92.341,231.255c-2.092.711-4.353-.362-4.721-2.3-.639-3.388-1.26-8.76.06-13.722,1.314-4.926,4.612-9.653,11.715-10.919,8.839-1.718,13.143,3.274,12.064,9.472a18.07,18.07,0,0,1-5.487,9.629C102.819,226.528,98.3,229.109,92.341,231.255Z" transform="translate(-86.901 -203.974)" fill="#fff"/>
                  </g>
                </g>
                <g id="Groupe_345" data-name="Groupe 345" transform="translate(2.754 28.956)">
                  <g id="Groupe_344" data-name="Groupe 344">
                    <path id="Tracé_236" data-name="Tracé 236" d="M90.55,209.212c-2.183.332-3.66,2.315-3.057,4.2a37.673,37.673,0,0,0,6.222,12.185c3.2,3.883,7.47,6.421,13.457,5.378,7.4-1.441,9.484-7.548,6.7-13.077a15.885,15.885,0,0,0-8.007-7.036A26.812,26.812,0,0,0,90.55,209.212Z" transform="translate(-87.358 -208.777)" fill="#fff"/>
                  </g>
                </g>
              </g>
              <g id="Groupe_351" data-name="Groupe 351" transform="translate(197.412 1.85)">
                <g id="Groupe_348" data-name="Groupe 348">
                  <g id="Groupe_347" data-name="Groupe 347">
                    <path id="Tracé_237" data-name="Tracé 237" d="M96.19,229.625c-2.152.5-4.311-.79-4.51-2.749-.723-6.807-.537-21.687,13.855-23.526,8.959-.814,12.818,4.528,11.208,10.617C115.146,220.147,108.417,226.6,96.19,229.625Z" transform="translate(-91.456 -203.267)" fill="#fff"/>
                  </g>
                </g>
                <g id="Groupe_350" data-name="Groupe 350" transform="translate(1.572 28.425)">
                  <g id="Groupe_349" data-name="Groupe 349">
                    <path id="Tracé_238" data-name="Tracé 238" d="M95.2,208.061a3.379,3.379,0,0,0-3.413,3.865c1.537,6.765,6.144,20.746,18.093,19.2,7.518-.657,10.123-6.572,7.826-12.311C115.426,213.155,107.787,207.229,95.2,208.061Z" transform="translate(-91.716 -207.982)" fill="#fff"/>
                  </g>
                </g>
              </g>
              <g id="Groupe_356" data-name="Groupe 356" transform="translate(224.993)">
                <g id="Groupe_353" data-name="Groupe 353">
                  <g id="Groupe_352" data-name="Groupe 352">
                    <path id="Tracé_239" data-name="Tracé 239" d="M100.285,228.244c-2.183.332-4.214-1.031-4.25-3.015-.048-3.455.259-8.869,2.412-13.578,2.14-4.612,6.2-8.4,13.4-8.682,8.983-.271,12.378,5.685,10.256,11.5-1.037,2.972-3.406,5.915-7.036,8.387A32.4,32.4,0,0,1,100.285,228.244Z" transform="translate(-96.03 -202.961)" fill="#fff"/>
                  </g>
                </g>
                <g id="Groupe_355" data-name="Groupe 355" transform="translate(0.64 27.446)">
                  <g id="Groupe_354" data-name="Groupe 354">
                    <path id="Tracé_240" data-name="Tracé 240" d="M99.89,207.514a3.472,3.472,0,0,0-3.726,3.666,37.126,37.126,0,0,0,4.033,13c2.49,4.389,6.282,7.916,12.36,7.669,7.548-.241,10.653-5.6,8.845-11.624a16.251,16.251,0,0,0-6.686-8.471C111.146,209.467,106.178,207.827,99.89,207.514Z" transform="translate(-96.136 -207.513)" fill="#fff"/>
                  </g>
                </g>
              </g>
              <g id="Groupe_361" data-name="Groupe 361" transform="translate(252.426 0.523)">
                <g id="Groupe_358" data-name="Groupe 358" transform="translate(0.087)">
                  <g id="Groupe_357" data-name="Groupe 357">
                    <path id="Tracé_241" data-name="Tracé 241" d="M104.587,227.343c-2.207.169-4.118-1.429-3.985-3.4.247-3.443,1.019-8.8,3.557-13.27a14.011,14.011,0,0,1,14.09-7.573c8.983.494,11.871,6.536,9.255,12.233a18.4,18.4,0,0,1-7.741,7.9C115.921,225.517,110.9,226.734,104.587,227.343Z" transform="translate(-100.595 -203.047)" fill="#fff"/>
                  </g>
                </g>
                <g id="Groupe_360" data-name="Groupe 360" transform="translate(0 26.445)">
                  <g id="Groupe_359" data-name="Groupe 359">
                    <path id="Tracé_242" data-name="Tracé 242" d="M104.611,207.455a3.457,3.457,0,0,0-4.027,3.3,37.585,37.585,0,0,0,2.918,13.349c2.116,4.5,5.6,8.163,11.66,8.634,3.786.241,6.536-1.007,8.212-3.063a9.082,9.082,0,0,0,1.6-7.874,15.632,15.632,0,0,0-5.957-8.857A27.148,27.148,0,0,0,104.611,207.455Z" transform="translate(-100.58 -207.433)" fill="#fff"/>
                  </g>
                </g>
              </g>
              <g id="Groupe_366" data-name="Groupe 366" transform="translate(279.153 3.402)">
                <g id="Groupe_363" data-name="Groupe 363" transform="translate(0.844)">
                  <g id="Groupe_362" data-name="Groupe 362">
                    <path id="Tracé_243" data-name="Tracé 243" d="M108.859,226.744c-2.213-.06-3.973-1.845-3.672-3.792,1.025-6.753,4.992-21.18,19.371-19.251,8.887,1.459,11.268,7.591,8.163,13.077a17.789,17.789,0,0,1-8.392,7.157A37.333,37.333,0,0,1,108.859,226.744Z" transform="translate(-105.153 -203.525)" fill="#fff"/>
                  </g>
                </g>
                <g id="Groupe_365" data-name="Groupe 365" transform="translate(0 25.288)">
                  <g id="Groupe_364" data-name="Groupe 364">
                    <path id="Tracé_244" data-name="Tracé 244" d="M109.328,207.8c-2.164-.44-4.22.91-4.287,2.882-.229,6.964.693,21.56,12.637,23.164,7.428,1.236,11.455-3.841,10.69-9.966a16.11,16.11,0,0,0-5.161-9.387C120.114,211.426,115.49,209.021,109.328,207.8Z" transform="translate(-105.013 -207.719)" fill="#fff"/>
                  </g>
                </g>
              </g>
              <g id="Groupe_371" data-name="Groupe 371" transform="translate(305.363 8.672)">
                <g id="Groupe_368" data-name="Groupe 368" transform="translate(1.869)">
                  <g id="Groupe_367" data-name="Groupe 367">
                    <path id="Tracé_245" data-name="Tracé 245" d="M113.092,226.412c-2.182-.32-3.81-2.11-3.34-4.046,1.634-6.758,6.795-20.643,20.975-17.514,8.736,2.177,10.539,8.64,6.988,13.783a17.486,17.486,0,0,1-8.959,6.313A33.668,33.668,0,0,1,113.092,226.412Z" transform="translate(-109.671 -204.399)" fill="#fff"/>
                  </g>
                </g>
                <g id="Groupe_370" data-name="Groupe 370" transform="translate(0 23.95)">
                  <g id="Groupe_369" data-name="Groupe 369">
                    <path id="Tracé_246" data-name="Tracé 246" d="M114.235,208.562a3.4,3.4,0,0,0-4.528,2.55c-.808,6.789-1.182,21.572,10.581,24.147,7.307,1.833,11.714-2.719,11.5-8.953a16.475,16.475,0,0,0-4.3-9.888C124.641,213.2,120.234,210.455,114.235,208.562Z" transform="translate(-109.361 -208.371)" fill="#fff"/>
                  </g>
                </g>
              </g>
              <g id="Groupe_376" data-name="Groupe 376" transform="translate(330.809 16.309)">
                <g id="Groupe_373" data-name="Groupe 373" transform="translate(3.195)">
                  <g id="Groupe_372" data-name="Groupe 372">
                    <path id="Tracé_247" data-name="Tracé 247" d="M117.252,226.481c-2.183-.386-3.624-2.412-2.99-4.275,2.171-6.451,8.628-20.209,22.41-15.622,4.281,1.339,6.753,3.72,7.6,6.391a8.235,8.235,0,0,1-1.815,7.874C138.492,225.594,129.551,229.061,117.252,226.481Z" transform="translate(-114.111 -205.666)" fill="#fff"/>
                  </g>
                </g>
                <g id="Groupe_375" data-name="Groupe 375" transform="translate(0 22.648)">
                  <g id="Groupe_374" data-name="Groupe 374">
                    <path id="Tracé_248" data-name="Tracé 248" d="M119.314,209.675a3.484,3.484,0,0,0-4.745,2.188c-1.435,6.837-2.978,21.156,8.441,24.985,7.2,2.207,11.9-1.676,12.257-7.995C135.628,222.565,131.028,214.4,119.314,209.675Z" transform="translate(-113.581 -209.422)" fill="#fff"/>
                  </g>
                </g>
              </g>
              <g id="Groupe_381" data-name="Groupe 381" transform="translate(355.396 26.254)">
                <g id="Groupe_378" data-name="Groupe 378" transform="translate(4.734)">
                  <g id="Groupe_377" data-name="Groupe 377">
                    <path id="Tracé_249" data-name="Tracé 249" d="M121.27,226.939c-2.128-.6-3.376-2.755-2.587-4.564,1.4-3.153,3.931-7.928,7.838-11.268,3.889-3.328,9.267-5.306,15.838-2.339,8.284,3.545,8.953,10.183,4.558,14.657a18.3,18.3,0,0,1-9.972,4.8C132.574,229.013,127.4,228.549,121.27,226.939Z" transform="translate(-118.444 -207.315)" fill="#fff"/>
                  </g>
                </g>
                <g id="Groupe_380" data-name="Groupe 380" transform="translate(0 21.242)">
                  <g id="Groupe_379" data-name="Groupe 379">
                    <path id="Tracé_250" data-name="Tracé 250" d="M124.44,211.246c-1.99-.959-4.329-.163-4.9,1.724a37.9,37.9,0,0,0-1.791,13.565c.446,5,2.5,9.544,8.031,12.064,6.927,2.96,12.076-.8,12.932-6.952a15.7,15.7,0,0,0-2.586-10.352A26.992,26.992,0,0,0,124.44,211.246Z" transform="translate(-117.659 -210.838)" fill="#fff"/>
                  </g>
                </g>
              </g>
              <g id="Groupe_386" data-name="Groupe 386" transform="translate(378.992 38.527)">
                <g id="Groupe_383" data-name="Groupe 383" transform="translate(6.424)">
                  <g id="Groupe_382" data-name="Groupe 382">
                    <path id="Tracé_251" data-name="Tracé 251" d="M125.151,227.626c-2.056-.8-3.1-3.087-2.164-4.811,3.262-5.993,11.907-18.232,24.762-11.5,7.868,4.377,8.025,10.943,3.238,15.055a17.871,17.871,0,0,1-10.328,3.883,29.228,29.228,0,0,1-7.156-.392A37.071,37.071,0,0,1,125.151,227.626Z" transform="translate(-122.638 -209.351)" fill="#fff"/>
                  </g>
                </g>
                <g id="Groupe_385" data-name="Groupe 385" transform="translate(0 19.628)">
                  <g id="Groupe_384" data-name="Groupe 384">
                    <path id="Tracé_252" data-name="Tracé 252" d="M129.556,213.2a3.391,3.391,0,0,0-5.01,1.254c-2.586,6.475-6.674,20.5,4,26.088,6.578,3.678,12.088.271,13.451-5.752a16.044,16.044,0,0,0-1.664-10.569,24.1,24.1,0,0,0-4.058-5.794A35.558,35.558,0,0,0,129.556,213.2Z" transform="translate(-121.573 -212.606)" fill="#fff"/>
                  </g>
                </g>
              </g>
              <g id="Groupe_391" data-name="Groupe 391" transform="translate(401.451 52.895)">
                <g id="Groupe_388" data-name="Groupe 388" transform="translate(8.214)">
                  <g id="Groupe_387" data-name="Groupe 387">
                    <path id="Tracé_253" data-name="Tracé 253" d="M128.876,228.652c-1.953-1.025-2.828-3.346-1.748-4.968,3.834-5.806,13.366-17.032,25.678-9.351,7.422,5.095,6.988,11.685,1.875,15.35S140.181,234.187,128.876,228.652Z" transform="translate(-126.66 -211.734)" fill="#fff"/>
                  </g>
                </g>
                <g id="Groupe_390" data-name="Groupe 390" transform="translate(0 17.97)">
                  <g id="Groupe_389" data-name="Groupe 389">
                    <path id="Tracé_254" data-name="Tracé 254" d="M134.607,215.52a3.364,3.364,0,0,0-5.107.832c-3.063,6.107-8.489,19.951,1.754,26.305,6.2,4.287,11.962,1.4,13.855-4.5C147,232.281,144.8,222.984,134.607,215.52Z" transform="translate(-125.298 -214.714)" fill="#fff"/>
                  </g>
                </g>
              </g>
              <g id="Groupe_396" data-name="Groupe 396" transform="translate(421.94 68.675)">
                <g id="Groupe_393" data-name="Groupe 393" transform="translate(9.928)">
                  <g id="Groupe_392" data-name="Groupe 392">
                    <path id="Tracé_255" data-name="Tracé 255" d="M132.339,229.972c-1.929-1.1-2.6-3.479-1.381-5.028,4.238-5.372,14.9-16.08,26.359-7.181,7.145,5.468,5.963,12.257.639,15.4-2.7,1.64-6.373,2.376-10.786,2.026C142.721,234.874,137.729,233.252,132.339,229.972Z" transform="translate(-130.343 -214.351)" fill="#fff"/>
                  </g>
                </g>
                <g id="Groupe_395" data-name="Groupe 395" transform="translate(0 16.443)">
                  <g id="Groupe_394" data-name="Groupe 394">
                    <path id="Tracé_256" data-name="Tracé 256" d="M139.348,218.017c-1.694-1.411-4.178-1.212-5.209.47-3.623,5.921-9.954,18.956-.44,26.372,6,4.564,11.775,2.418,14.223-3.388S148.8,226.4,139.348,218.017Z" transform="translate(-128.696 -217.078)" fill="#fff"/>
                  </g>
                </g>
              </g>
              <g id="Groupe_401" data-name="Groupe 401" transform="translate(441.765 86.919)">
                <g id="Groupe_398" data-name="Groupe 398" transform="translate(11.767)">
                  <g id="Groupe_397" data-name="Groupe 397">
                    <path id="Tracé_257" data-name="Tracé 257" d="M135.635,231.677c-1.809-1.272-2.267-3.72-.917-5.155,2.376-2.5,6.373-6.156,11.172-7.995A15.68,15.68,0,0,1,153.6,217.5a15.143,15.143,0,0,1,7.983,4.136c6.65,6.065,4.962,12.643-.645,15.356a18.55,18.55,0,0,1-10.973,1.152C145.547,237.471,140.88,235.235,135.635,231.677Z" transform="translate(-133.936 -217.377)" fill="#fff"/>
                  </g>
                </g>
                <g id="Groupe_400" data-name="Groupe 400" transform="translate(0 14.761)">
                  <g id="Groupe_399" data-name="Groupe 399">
                    <path id="Tracé_258" data-name="Tracé 258" d="M144.033,221.011a3.448,3.448,0,0,0-5.2-.006,37.515,37.515,0,0,0-6.228,12.161,15.684,15.684,0,0,0-.332,7.253,12.223,12.223,0,0,0,3.853,6.825c5.583,5.071,11.594,3.352,14.494-2.195a15.54,15.54,0,0,0,1.061-10.654A27.45,27.45,0,0,0,144.033,221.011Z" transform="translate(-131.985 -219.825)" fill="#fff"/>
                  </g>
                </g>
              </g>
              <g id="Groupe_406" data-name="Groupe 406" transform="translate(460.035 106.986)">
                <g id="Groupe_403" data-name="Groupe 403" transform="translate(13.636)">
                  <g id="Groupe_402" data-name="Groupe 402">
                    <path id="Tracé_259" data-name="Tracé 259" d="M138.7,233.611c-1.682-1.441-1.917-3.931-.446-5.245,2.58-2.291,6.867-5.577,11.793-6.988,4.86-1.357,10.678-1.025,15.386,4.425,5.981,6.723,3.949,12.951-1.947,15.236a17.984,17.984,0,0,1-11.057.235A37.279,37.279,0,0,1,138.7,233.611Z" transform="translate(-137.277 -220.705)" fill="#fff"/>
                  </g>
                </g>
                <g id="Groupe_405" data-name="Groupe 405" transform="translate(0 12.968)">
                  <g id="Groupe_404" data-name="Groupe 404">
                    <path id="Tracé_260" data-name="Tracé 260" d="M148.52,224.307a3.42,3.42,0,0,0-5.161-.482c-4.63,5.258-13.083,17.02-4.956,25.925,5.01,5.637,11.359,4.256,14.645-.953a15.983,15.983,0,0,0,1.935-10.5A26.775,26.775,0,0,0,148.52,224.307Z" transform="translate(-135.015 -222.856)" fill="#fff"/>
                  </g>
                </g>
              </g>
              <g id="Groupe_411" data-name="Groupe 411" transform="translate(476.65 128.631)">
                <g id="Groupe_408" data-name="Groupe 408" transform="translate(15.498)">
                  <g id="Groupe_407" data-name="Groupe 407">
                    <path id="Tracé_261" data-name="Tracé 261" d="M141.492,235.838c-1.537-1.592-1.543-4.106.036-5.287,5.468-4.124,18.322-11.618,27.294-.217,5.318,7.259,2.731,13.312-3.322,15.067C159.368,247.209,150.367,244.774,141.492,235.838Z" transform="translate(-140.341 -224.296)" fill="#fff"/>
                  </g>
                </g>
                <g id="Groupe_410" data-name="Groupe 410" transform="translate(0 11.187)">
                  <g id="Groupe_409" data-name="Groupe 409">
                    <path id="Tracé_262" data-name="Tracé 262" d="M152.743,227.881a3.381,3.381,0,0,0-5.07-.947c-5.01,4.8-14.627,15.941-7.162,25.406,4.437,6.1,10.858,5.282,14.6.362C158.778,247.85,159.924,238.257,152.743,227.881Z" transform="translate(-137.771 -226.151)" fill="#fff"/>
                  </g>
                </g>
              </g>
              <g id="Groupe_416" data-name="Groupe 416" transform="translate(491.508 151.72)">
                <g id="Groupe_413" data-name="Groupe 413" transform="translate(17.283)">
                  <g id="Groupe_412" data-name="Groupe 412">
                    <path id="Tracé_263" data-name="Tracé 263" d="M144.032,238.332c-1.333-1.755-1.272-4.16.428-5.221,5.884-3.69,19.305-10.038,27.245,2.11,4.721,7.663,1.507,13.541-4.63,14.741a17.464,17.464,0,0,1-10.816-1.736A33.642,33.642,0,0,1,144.032,238.332Z" transform="translate(-143.102 -228.125)" fill="#fff"/>
                  </g>
                </g>
                <g id="Groupe_415" data-name="Groupe 415" transform="translate(0 9.465)">
                  <g id="Groupe_414" data-name="Groupe 414">
                    <path id="Tracé_264" data-name="Tracé 264" d="M156.664,231.661a3.417,3.417,0,0,0-5.035-1.332c-5.324,4.3-15.893,14.59-9.291,24.677,3.949,6.415,10.3,6.234,14.488,1.628a16.41,16.41,0,0,0,3.822-10.081C160.866,242.26,159.63,237.214,156.664,231.661Z" transform="translate(-140.235 -229.695)" fill="#fff"/>
                  </g>
                </g>
              </g>
              <g id="Groupe_421" data-name="Groupe 421" transform="translate(504.472 176.116)">
                <g id="Groupe_418" data-name="Groupe 418" transform="translate(18.942)">
                  <g id="Groupe_417" data-name="Groupe 417">
                    <path id="Tracé_265" data-name="Tracé 265" d="M146.293,241.092c-1.29-1.8-.91-4.251.844-5.149,6.077-3.111,20.264-8.423,26.95,4.462,4.256,7.94.307,13.638-5.824,14.259C162.1,255.3,153.3,251.522,146.293,241.092Z" transform="translate(-145.527 -232.171)" fill="#fff"/>
                  </g>
                </g>
                <g id="Groupe_420" data-name="Groupe 420" transform="translate(0 7.763)">
                  <g id="Groupe_419" data-name="Groupe 419">
                    <path id="Tracé_266" data-name="Tracé 266" d="M160.205,235.684a3.484,3.484,0,0,0-4.926-1.742c-5.782,3.883-16.93,13.077-11.4,23.785,3.581,6.626,9.683,7.108,14.343,2.84C162.87,256.322,165.3,247.248,160.205,235.684Z" transform="translate(-142.385 -233.459)" fill="#fff"/>
                  </g>
                </g>
              </g>
              <g id="Groupe_426" data-name="Groupe 426" transform="translate(515.438 201.614)">
                <g id="Groupe_423" data-name="Groupe 423" transform="translate(20.551)">
                  <g id="Groupe_422" data-name="Groupe 422">
                    <path id="Tracé_267" data-name="Tracé 267" d="M148.168,244.114c-1.109-1.911-.5-4.335,1.326-5.07,3.2-1.284,8.356-2.936,13.487-2.6a14.047,14.047,0,0,1,12.969,9.381c3.485,8.308-.724,13.554-6.982,13.68a18.43,18.43,0,0,1-10.473-3.533C154.782,253.507,151.454,249.534,148.168,244.114Z" transform="translate(-147.613 -236.401)" fill="#fff"/>
                  </g>
                </g>
                <g id="Groupe_425" data-name="Groupe 425" transform="translate(0 6.083)">
                  <g id="Groupe_424" data-name="Groupe 424">
                    <path id="Tracé_268" data-name="Tracé 268" d="M163.339,239.945a3.442,3.442,0,0,0-4.721-2.183,37.678,37.678,0,0,0-10.738,8.459c-3.141,3.877-4.9,8.591-2.683,14.247,2.93,6.946,9.182,7.862,14.108,4.052a15.618,15.618,0,0,0,5.384-9.225A27.152,27.152,0,0,0,163.339,239.945Z" transform="translate(-144.204 -237.41)" fill="#fff"/>
                  </g>
                </g>
              </g>
              <g id="Groupe_431" data-name="Groupe 431" transform="translate(524.264 227.97)">
                <g id="Groupe_428" data-name="Groupe 428" transform="translate(22.157)">
                  <g id="Groupe_427" data-name="Groupe 427">
                    <path id="Tracé_269" data-name="Tracé 269" d="M149.716,247.386c-.916-2.008-.078-4.377,1.8-4.956,6.505-2.008,21.283-4.745,25.762,9.062,2.581,8.628-1.893,13.439-8.193,13.035a17.813,17.813,0,0,1-10.111-4.431,28.321,28.321,0,0,1-4.835-5.281A37.51,37.51,0,0,1,149.716,247.386Z" transform="translate(-149.343 -240.772)" fill="#fff"/>
                  </g>
                </g>
                <g id="Groupe_430" data-name="Groupe 430" transform="translate(0 4.503)">
                  <g id="Groupe_429" data-name="Groupe 429">
                    <path id="Tracé_270" data-name="Tracé 270" d="M166.154,244.359a3.4,3.4,0,0,0-4.468-2.6c-6.379,2.834-19.064,10.008-15.35,21.457,2.146,7.223,8.471,8.634,13.65,5.276a16.018,16.018,0,0,0,6.186-8.724,25.121,25.121,0,0,0,1.151-6.982A35.524,35.524,0,0,0,166.154,244.359Z" transform="translate(-145.668 -241.519)" fill="#fff"/>
                  </g>
                </g>
              </g>
              <g id="Groupe_436" data-name="Groupe 436" transform="translate(530.994 254.962)">
                <g id="Groupe_433" data-name="Groupe 433" transform="translate(23.642)">
                  <g id="Groupe_432" data-name="Groupe 432">
                    <path id="Tracé_271" data-name="Tracé 271" d="M150.919,250.911c-.681-2.1.32-4.371,2.231-4.775,6.8-1.477,21.452-2.852,24.894,11.256,1.773,8.827-3.183,13.246-9.387,12.293S155.14,262.77,150.919,250.911Z" transform="translate(-150.706 -245.249)" fill="#fff"/>
                  </g>
                </g>
                <g id="Groupe_435" data-name="Groupe 435" transform="translate(0 3.082)">
                  <g id="Groupe_434" data-name="Groupe 434">
                    <path id="Tracé_272" data-name="Tracé 272" d="M168.548,248.889a3.361,3.361,0,0,0-4.232-2.972c-6.457,2.225-20.017,8.35-17.135,20.041,1.459,7.392,7.56,9.363,13.047,6.463S170.616,261.345,168.548,248.889Z" transform="translate(-146.784 -245.76)" fill="#fff"/>
                  </g>
                </g>
              </g>
              <g id="Groupe_441" data-name="Groupe 441" transform="translate(535.493 282.397)">
                <g id="Groupe_438" data-name="Groupe 438" transform="translate(24.966)">
                  <g id="Groupe_437" data-name="Groupe 437">
                    <path id="Tracé_273" data-name="Tracé 273" d="M151.832,254.669c-.609-2.128.579-4.3,2.538-4.546,6.789-.862,21.91-1.031,23.821,13.361.675,4.432-.428,7.693-2.448,9.616a8.228,8.228,0,0,1-7.88,1.8C161.876,273.4,154.834,266.872,151.832,254.669Z" transform="translate(-151.671 -249.799)" fill="#fff"/>
                  </g>
                </g>
                <g id="Groupe_440" data-name="Groupe 440" transform="translate(0 1.837)">
                  <g id="Groupe_439" data-name="Groupe 439">
                    <path id="Tracé_274" data-name="Tracé 274" d="M170.516,253.5c-.223-2.195-2.134-3.792-4.046-3.316-6.741,1.682-20.378,6.536-18.817,18.491.591,3.744,2.243,6.21,4.486,7.482a9.108,9.108,0,0,0,8.043.072C166.013,273.811,171.33,266.112,170.516,253.5Z" transform="translate(-147.531 -250.104)" fill="#fff"/>
                  </g>
                </g>
              </g>
              <g id="Groupe_446" data-name="Groupe 446" transform="translate(537.783 309.974)">
                <g id="Groupe_443" data-name="Groupe 443" transform="translate(26.118)">
                  <g id="Groupe_442" data-name="Groupe 442">
                    <path id="Tracé_275" data-name="Tracé 275" d="M152.307,258.718c-.386-2.176,1.013-4.245,2.984-4.317,3.443-.121,8.851.078,13.553,2.134,4.679,2.044,8.844,6.017,9.026,13.21.344,8.983-5.185,12.486-11.184,10.49a18.007,18.007,0,0,1-8.694-6.861C155.393,269.793,153.536,264.934,152.307,258.718Z" transform="translate(-152.242 -254.373)" fill="#fff"/>
                  </g>
                </g>
                <g id="Groupe_445" data-name="Groupe 445" transform="translate(0 0.837)">
                  <g id="Groupe_444" data-name="Groupe 444">
                    <path id="Tracé_276" data-name="Tracé 276" d="M171.934,258.2a3.433,3.433,0,0,0-3.69-3.654,37.688,37.688,0,0,0-12.981,4.3c-4.323,2.58-7.482,6.421-7.35,12.51.283,7.542,6.065,10.527,11.913,8.6a15.926,15.926,0,0,0,8.164-6.861A26.859,26.859,0,0,0,171.934,258.2Z" transform="translate(-147.91 -254.512)" fill="#fff"/>
                  </g>
                </g>
              </g>
            </g>
          </g>
          <g id="Groupe_75" data-name="Groupe 75" transform="translate(112.611 73.717)">
            <path id="Tracé_123" data-name="Tracé 123" d="M296.629,295.725h0c-1.062-1.275-2.285-2.663-3.707-4.193-16.432-17.65-80.116-76.438-85.136-79.446-10.875-6.516-7.569,13.528,8.344,40.977,13.25,22.854,56.054,86.363,79.89,61.9l2.526-2.843c4.566,4.76,8.759,9.132,13,13.5l-1.171,1.738c-1.4,3.9-.378,9.038,7.031,16.257,3.452,3.362,6.162,6.006,8.263,8.051v0l14.515,14.142c8.008,7.8,13.405,8.216,17.353,6.214h0l.009,0,.038.038c.024-.019.061-.019.08-.038.274-.161.505-.364.765-.538.411-.26.807-.538,1.195-.841h0v0h0c.246-.345.491-.7.723-1.067.194-.293.415-.571.585-.874.019-.019.038-.076.057-.094v-.042a10.987,10.987,0,0,0,.59-1.322c1.365-3.669.562-8.287-5.619-14.312-7.2-7.012-10.7-10.426-11.984-11.673C329.829,327.277,296.629,295.725,296.629,295.725Z" transform="translate(-201.436 -205.048)" fill="#e8af5a"/>
            <path id="Tracé_124" data-name="Tracé 124" d="M327.272,296.879h0c1.034-1.3,2.219-2.725,3.6-4.287,15.965-18.075,78.091-78.506,83.03-81.642,10.7-6.8,7.923,13.321-7.272,41.18-12.645,23.194-53.778,87.8-78.246,63.963l-2.6-2.772c-4.443,4.873-8.518,9.354-12.645,13.84l1.214,1.7c1.5,3.867.614,9.028-6.606,16.442-3.357,3.447-6,6.162-8.046,8.263h0s-3.428,3.518-14.142,14.52c-7.8,8-13.183,8.561-17.188,6.663h0l0,0-.038.042c-.024-.019-.061-.019-.08-.038-.279-.151-.519-.35-.779-.519-.416-.25-.822-.515-1.218-.807v0h0c-.25-.335-.505-.685-.746-1.048-.2-.288-.43-.557-.609-.855-.024-.019-.042-.08-.061-.1v-.038a11.834,11.834,0,0,1-.628-1.308c-1.459-3.631-.774-8.273,5.251-14.454,7.007-7.2,10.421-10.7,11.673-11.984C294.9,329.285,327.272,296.879,327.272,296.879Z" transform="translate(29.746 -209.62)" fill="#e8af5a"/>
          </g>
          <path id="Tracé_125" data-name="Tracé 125" d="M315.856,246.154a16.994,16.994,0,0,0-7.664,1.988,22.294,22.294,0,0,0-22.481-20.526H285.7l-.071.009a22.289,22.289,0,0,0-21.829,20.88,17.176,17.176,0,1,0-9.033,32.69l5.534,12.867c.652,5.27-.137,5.9-.571,8.443a4.381,4.381,0,0,0-.279,1.492l.014,1.025a4.559,4.559,0,0,0,4.618,4.5l45.713-.595a4.567,4.567,0,0,0,4.5-4.627l-.014-1.025a4.452,4.452,0,0,0-.5-1.931c-.623-2.677-1.5-2.965-1.015-7.975l5.18-12.952a17.183,17.183,0,0,0-2.1-34.267Z" transform="translate(52.744 -68.935)" fill="#fff"/>
        </g>
      </g>
      <path id="Tracé_118" data-name="Tracé 118" d="M269.638,291.758a10.963,10.963,0,1,1-11.106-10.818A10.958,10.958,0,0,1,269.638,291.758Z" transform="translate(126.398 129.536)" fill="#fff"/>
      <g id="Groupe_74" data-name="Groupe 74" transform="translate(0 379.295)">
        <g id="Groupe_72" data-name="Groupe 72" transform="translate(405.14)">
          <path id="Tracé_119" data-name="Tracé 119" d="M581.971,306.4c-22.066,39.806-75.626,45.212-127.208,34.125a247.093,247.093,0,0,0-29.318-4.661,48.013,48.013,0,0,0,12.381-7.98c16.257-14.676,20.583-42.129-6.469-51.261-27.108-9.076-37.794,10.912-33.889,23.1S418,311.692,421.63,302.688c3.688-8.943-19.1-9.935-10.445-19.473,12.7-13.925,35.032,1.412,28.346,18.481-14.935,35.612-59.576,28.7-101.993,22a224.8,224.8,0,0,0-56.11-1.728h-.061c-1.412-.392-.014-1.171-.014-1.171,29.432-5.827,39.475-12.225,32.864-20.8-10.128-13.627-35.886,9.189-46.232,19.393,0,0-1.1,1.129-1.568,1.138-.175,0-.293-.231-.066-.822,7.012-9.751,23.7-27.415,8.481-31.844-18.453-5.435-11.285,36.8-11.285,36.8.246,1.053,1.908,2.729,1.96,6.648a20.658,20.658,0,0,1-.416,3.872c-1.709,8.334-4.944,7.324-9.6,13.59-4.6,6.266,4.826,15.275,14.591,5.137,9.93-10.492.392-23.539-4.174-28.223-.179-.175-.241-.288-.241-.406a.632.632,0,0,1,.227-.472c6.507.557,25.276,3.239,37.737,15.96,15.252,15.549,23.94,12.744,24.412,4.132s-7.291-15.771-32.406-19.955c-.533-.519-.066-.76-.009-.817l.35,0A277.961,277.961,0,0,1,355.6,335.4c1.029.331,2.125.609,3.178.921,4.467,3.607,8.07,8.311,8.107,13,.071,9.283-5.015,23.388,3.593,24.445s13.151-7.319,10.062-18.755a31.28,31.28,0,0,0-12.1-16.229,131.453,131.453,0,0,0,17.915,2.658q3.251.22,6.5.265a88.868,88.868,0,0,0,11.88-.505h.057c1.171-.132,2.281-.264,3.39-.4,31.1-3.452,64.548,21.622,65.247,37.907.581,13.552-27.434,11.569-21.182,27.85,6.955,18.1,47.833-4.661,33.02-36.141-5.057-10.648-15.573-17.948-27.293-22.887-.08-.038-.17-.066-.255-.1a328.076,328.076,0,0,0,42.861,7.928c55.128,6.242,106.5-22.467,116.083-45.646S604.032,266.6,581.971,306.4Z" transform="translate(-254.285 -274.336)" fill="#e8af5a"/>
          <path id="Tracé_120" data-name="Tracé 120" d="M343.594,296.362c6.105-10.147,4.287-19.246-3.966-20.337s-7.56,13.594-10.27,22.424-18.331,14.345-25.05,13.283C304.308,311.732,331.057,315.614,343.594,296.362Z" transform="translate(-68.104 -268.261)" fill="#fff"/>
        </g>
        <g id="Groupe_73" data-name="Groupe 73" transform="translate(0 4.819)">
          <path id="Tracé_121" data-name="Tracé 121" d="M205.662,311.691c23.095,39.215,76.773,43.219,128.044,30.791a246.255,246.255,0,0,1,29.186-5.421,48,48,0,0,1-12.584-7.659c-16.635-14.246-21.673-41.576,5.123-51.412,26.863-9.779,38.068,9.925,34.479,22.207s-20.21,12.5-24.072,3.593c-3.919-8.849,18.831-10.435,9.93-19.742-13.056-13.589-34.98,2.328-27.85,19.213,15.856,35.216,60.3,27.141,102.527,19.331a224.53,224.53,0,0,1,56.039-3.192h.057c1.4-.43-.014-1.171-.014-1.171-29.569-5.062-39.777-11.191-33.393-19.941,9.77-13.887,36.108,8.254,46.719,18.184,0,0,1.124,1.1,1.6,1.091.175,0,.288-.236.047-.817-7.267-9.567-24.412-26.792-9.312-31.613,18.3-5.916,12.244,36.491,12.244,36.491-.222,1.058-1.837,2.776-1.79,6.7a20.628,20.628,0,0,0,.52,3.858c1.927,8.292,5.128,7.2,9.954,13.339,4.76,6.143-4.424,15.393-14.449,5.515-10.2-10.232-1.01-23.524,3.438-28.322.17-.18.231-.3.227-.416a.61.61,0,0,0-.241-.463c-6.488.727-25.177,3.9-37.3,16.937-14.836,15.941-23.591,13.363-24.289,4.769s6.875-15.96,31.868-20.8c.519-.534.047-.76-.009-.817l-.354,0a277.706,277.706,0,0,0-59.312,12.834c-1.02.359-2.106.666-3.15,1.006-4.368,3.721-7.848,8.514-7.763,13.207.17,9.283,5.619,23.246-2.956,24.53s-13.335-6.974-10.549-18.486a31.279,31.279,0,0,1,11.672-16.541,132.636,132.636,0,0,1-17.839,3.126q-3.244.3-6.493.434a89.017,89.017,0,0,1-11.885-.2l-.061,0c-1.171-.1-2.285-.208-3.4-.307-31.179-2.64-63.953,23.3-64.227,39.593-.227,13.566,27.727,10.846,21.9,27.292-6.479,18.278-47.932-3.414-33.95-35.272,4.779-10.775,15.1-18.345,26.683-23.591.08-.038.17-.071.25-.1a328.127,328.127,0,0,1-42.634,9.042c-54.939,7.683-107.041-19.676-117.221-42.6S182.572,272.471,205.662,311.691Z" transform="translate(-168.485 -275.356)" fill="#e8af5a"/>
          <path id="Tracé_122" data-name="Tracé 122" d="M190.469,298.1c-6.365-9.987-4.783-19.128,3.433-20.436s7.914,13.391,10.851,22.151,18.7,13.859,25.385,12.622C230.137,312.431,203.5,317.012,190.469,298.1Z" transform="translate(-101.223 -267.087)" fill="#fff"/>
        </g>
      </g>
    </g>
    <g id="Groupe_475" data-name="Groupe 475" transform="translate(120.826 119.26)">
      <g id="Groupe_468" data-name="Groupe 468" transform="translate(0 0)">
        <path id="Tracé_290" data-name="Tracé 290" d="M333.986,766.071C181.66,768.063,56.121,645.762,54.129,493.43S174.444,215.564,326.77,213.578,604.635,333.894,606.627,486.22,486.312,764.085,333.986,766.071Zm-7.113-544.616C178.9,223.394,60.081,345.352,62.013,493.327s123.89,266.8,271.871,264.866,266.792-123.9,264.86-271.872S474.853,219.524,326.872,221.456Z" transform="translate(-54.105 -213.554)" fill="#e8af5a"/>
      </g>
    </g>
  </g>
</svg>
